<svg xmlns="http://www.w3.org/2000/svg" xmlns:xlink="http://www.w3.org/1999/xlink" width="1920" zoomAndPan="magnify" viewBox="0 0 1440 809.999993" height="1080" preserveAspectRatio="xMidYMid meet" version="1.2"><defs><clipPath id="5e1e470946"><path d="M 223 347.820312 L 241 347.820312 L 241 585.113281 L 223 585.113281 Z M 223 347.820312 "/></clipPath><clipPath id="a90dd0f662"><path d="M 197 347.820312 L 219 347.820312 L 219 585.113281 L 197 585.113281 Z M 197 347.820312 "/></clipPath><clipPath id="876088af01"><path d="M 314 347.820312 L 356 347.820312 L 356 585.113281 L 314 585.113281 Z M 314 347.820312 "/></clipPath><clipPath id="391d89e896"><path d="M 246 347.820312 L 272 347.820312 L 272 585.113281 L 246 585.113281 Z M 246 347.820312 "/></clipPath><clipPath id="84ac3e1a3d"><path d="M 268 347.820312 L 298 347.820312 L 298 585.113281 L 268 585.113281 Z M 268 347.820312 "/></clipPath><clipPath id="cbfd66e6fb"><path d="M 290 347.820312 L 311 347.820312 L 311 585.113281 L 290 585.113281 Z M 290 347.820312 "/></clipPath><clipPath id="ffc903d68d"><path d="M 295 347.820312 L 334 347.820312 L 334 585.113281 L 295 585.113281 Z M 295 347.820312 "/></clipPath><clipPath id="ba56eadf48"><path d="M 340 347.820312 L 379 347.820312 L 379 585.113281 L 340 585.113281 Z M 340 347.820312 "/></clipPath><clipPath id="61a06a8749"><path d="M 366 347.820312 L 400 347.820312 L 400 585.113281 L 366 585.113281 Z M 366 347.820312 "/></clipPath><clipPath id="37d21048b6"><path d="M 192.382812 324.710938 L 399.496094 324.710938 L 399.496094 390.167969 L 192.382812 390.167969 Z M 192.382812 324.710938 "/></clipPath><clipPath id="1c4b445e6d"><path d="M 295.929688 324.710938 C 238.742188 324.710938 192.382812 339.363281 192.382812 357.4375 C 192.382812 375.515625 238.742188 390.167969 295.929688 390.167969 C 353.117188 390.167969 399.472656 375.515625 399.472656 357.4375 C 399.472656 339.363281 353.117188 324.710938 295.929688 324.710938 Z M 295.929688 324.710938 "/></clipPath><clipPath id="cb05fec8cf"><path d="M 338.824219 286.59375 L 376.941406 286.59375 L 376.941406 324.710938 L 338.824219 324.710938 Z M 338.824219 286.59375 "/></clipPath><clipPath id="1494c7f1e0"><path d="M 357.882812 286.59375 C 347.355469 286.59375 338.824219 295.125 338.824219 305.652344 C 338.824219 316.175781 347.355469 324.710938 357.882812 324.710938 C 368.410156 324.710938 376.941406 316.175781 376.941406 305.652344 C 376.941406 295.125 368.410156 286.59375 357.882812 286.59375 Z M 357.882812 286.59375 "/></clipPath><clipPath id="7ada7d362f"><path d="M 289.574219 224.988281 L 351.183594 224.988281 L 351.183594 286.59375 L 289.574219 286.59375 Z M 289.574219 224.988281 "/></clipPath><clipPath id="c45f874269"><path d="M 320.378906 224.988281 C 303.367188 224.988281 289.574219 238.777344 289.574219 255.789062 C 289.574219 272.800781 303.367188 286.59375 320.378906 286.59375 C 337.390625 286.59375 351.183594 272.800781 351.183594 255.789062 C 351.183594 238.777344 337.390625 224.988281 320.378906 224.988281 Z M 320.378906 224.988281 "/></clipPath><clipPath id="146ebfd6ef"><path d="M 358.046875 185.65625 L 440.902344 185.65625 L 440.902344 268.511719 L 358.046875 268.511719 Z M 358.046875 185.65625 "/></clipPath><clipPath id="5d2d2ad3f5"><path d="M 399.472656 185.65625 C 376.59375 185.65625 358.046875 204.203125 358.046875 227.082031 C 358.046875 249.964844 376.59375 268.511719 399.472656 268.511719 C 422.355469 268.511719 440.902344 249.964844 440.902344 227.082031 C 440.902344 204.203125 422.355469 185.65625 399.472656 185.65625 Z M 399.472656 185.65625 "/></clipPath><clipPath id="cb01cec6fd"><path d="M 357.882812 185.65625 L 461 185.65625 L 461 293 L 357.882812 293 Z M 357.882812 185.65625 "/></clipPath></defs><g id="95e872dbf0"><g style="fill:#000000;fill-opacity:1;"><g transform="translate(518.793076, 429.618772)"><path style="stroke:none" d="M 59.78125 -81.328125 L 59.78125 -65.859375 L 40 -65.859375 L 40 0 L 23.984375 0 L 23.984375 -65.859375 L 4.96875 -65.859375 L 4.96875 -81.328125 Z M 59.78125 -81.328125 "/></g></g><g style="fill:#000000;fill-opacity:1;"><g transform="translate(583.538925, 429.618772)"><path style="stroke:none" d="M 41.546875 -50.609375 C 46.117188 -50.609375 49.929688 -49.242188 52.984375 -46.515625 C 56.046875 -43.796875 57.613281 -40.335938 57.6875 -36.140625 L 57.6875 0 L 42.21875 0 L 42.21875 -30.390625 C 41.988281 -35.097656 39.628906 -37.453125 35.140625 -37.453125 C 31.597656 -37.453125 28.757812 -35.796875 26.625 -32.484375 C 24.488281 -29.171875 23.421875 -24.898438 23.421875 -19.671875 L 23.421875 0 L 7.953125 0 L 7.953125 -87.1875 L 23.09375 -87.1875 L 23.09375 -40.65625 C 24.863281 -43.757812 27.3125 -46.191406 30.4375 -47.953125 C 33.570312 -49.722656 37.273438 -50.609375 41.546875 -50.609375 Z M 41.546875 -50.609375 "/></g></g><g style="fill:#000000;fill-opacity:1;"><g transform="translate(649.168687, 429.618772)"><path style="stroke:none" d="M 32.046875 -11.828125 C 35.140625 -11.828125 38.34375 -12.894531 41.65625 -15.03125 L 48.515625 -3.53125 C 45.859375 -2.0625 43.054688 -0.882812 40.109375 0 C 37.160156 0.882812 34.363281 1.328125 31.71875 1.328125 C 25.96875 1.328125 21.007812 0.242188 16.84375 -1.921875 C 12.6875 -4.097656 9.539062 -7.15625 7.40625 -11.09375 C 5.269531 -15.039062 4.203125 -19.554688 4.203125 -24.640625 C 4.203125 -29.359375 5.4375 -33.703125 7.90625 -37.671875 C 10.375 -41.648438 13.742188 -44.800781 18.015625 -47.125 C 22.285156 -49.445312 26.960938 -50.609375 32.046875 -50.609375 C 38.972656 -50.609375 44.660156 -48.582031 49.109375 -44.53125 C 53.566406 -40.476562 56.460938 -34.695312 57.796875 -27.1875 L 22.4375 -15.90625 C 24.789062 -13.1875 27.992188 -11.828125 32.046875 -11.828125 Z M 30.828125 -38.5625 C 27.367188 -38.5625 24.609375 -37.382812 22.546875 -35.03125 C 20.484375 -32.675781 19.453125 -29.507812 19.453125 -25.53125 L 19.453125 -24.53125 L 40.65625 -31.71875 C 39.113281 -36.28125 35.835938 -38.5625 30.828125 -38.5625 Z M 30.828125 -38.5625 "/></g></g><g style="fill:#000000;fill-opacity:1;"><g transform="translate(710.268439, 429.618772)"><path style="stroke:none" d=""/></g></g><g style="fill:#000000;fill-opacity:1;"><g transform="translate(746.176973, 429.618772)"><path style="stroke:none" d="M 35.140625 -81.328125 C 45.085938 -81.328125 52.785156 -78.875 58.234375 -73.96875 C 63.679688 -69.070312 66.40625 -62.390625 66.40625 -53.921875 C 66.40625 -49.054688 65.46875 -44.503906 63.59375 -40.265625 C 61.71875 -36.035156 58.660156 -32.554688 54.421875 -29.828125 C 50.179688 -27.109375 44.710938 -25.75 38.015625 -25.75 L 26.515625 -25.75 L 26.515625 0 L 10.5 0 L 10.5 -81.328125 Z M 37.90625 -41.328125 C 40.925781 -41.328125 43.351562 -42.007812 45.1875 -43.375 C 47.03125 -44.738281 48.359375 -46.335938 49.171875 -48.171875 C 49.984375 -50.015625 50.390625 -51.785156 50.390625 -53.484375 C 50.390625 -56.359375 49.539062 -59.140625 47.84375 -61.828125 C 46.15625 -64.515625 42.878906 -65.859375 38.015625 -65.859375 L 26.515625 -65.859375 L 26.515625 -41.328125 Z M 37.90625 -41.328125 "/></g></g><g style="fill:#000000;fill-opacity:1;"><g transform="translate(816.447224, 429.618772)"><path style="stroke:none" d="M 41.546875 -50.609375 C 46.117188 -50.609375 49.929688 -49.242188 52.984375 -46.515625 C 56.046875 -43.796875 57.613281 -40.335938 57.6875 -36.140625 L 57.6875 0 L 42.21875 0 L 42.21875 -30.390625 C 41.988281 -35.097656 39.628906 -37.453125 35.140625 -37.453125 C 31.597656 -37.453125 28.757812 -35.796875 26.625 -32.484375 C 24.488281 -29.171875 23.421875 -24.898438 23.421875 -19.671875 L 23.421875 0 L 7.953125 0 L 7.953125 -87.1875 L 23.09375 -87.1875 L 23.09375 -40.65625 C 24.863281 -43.757812 27.3125 -46.191406 30.4375 -47.953125 C 33.570312 -49.722656 37.273438 -50.609375 41.546875 -50.609375 Z M 41.546875 -50.609375 "/></g></g><g style="fill:#000000;fill-opacity:1;"><g transform="translate(882.076973, 429.618772)"><path style="stroke:none" d="M 23.421875 -48.28125 L 23.421875 0 L 7.953125 0 L 7.953125 -48.28125 Z M 7.625 -65.421875 C 7.625 -67.628906 8.488281 -69.488281 10.21875 -71 C 11.945312 -72.507812 13.921875 -73.265625 16.140625 -73.265625 C 18.273438 -73.265625 20.1875 -72.507812 21.875 -71 C 23.570312 -69.488281 24.421875 -67.628906 24.421875 -65.421875 C 24.421875 -63.210938 23.570312 -61.367188 21.875 -59.890625 C 20.1875 -58.421875 18.273438 -57.6875 16.140625 -57.6875 C 13.921875 -57.6875 11.945312 -58.421875 10.21875 -59.890625 C 8.488281 -61.367188 7.625 -63.210938 7.625 -65.421875 Z M 7.625 -65.421875 "/></g></g><g style="fill:#000000;fill-opacity:1;"><g transform="translate(913.45551, 429.618772)"><path style="stroke:none" d="M 23.421875 -87.1875 L 23.421875 0 L 7.953125 0 L 7.953125 -87.1875 Z M 23.421875 -87.1875 "/></g></g><g style="fill:#000000;fill-opacity:1;"><g transform="translate(944.834071, 429.618772)"><path style="stroke:none" d="M 23.421875 -48.28125 L 23.421875 0 L 7.953125 0 L 7.953125 -48.28125 Z M 7.625 -65.421875 C 7.625 -67.628906 8.488281 -69.488281 10.21875 -71 C 11.945312 -72.507812 13.921875 -73.265625 16.140625 -73.265625 C 18.273438 -73.265625 20.1875 -72.507812 21.875 -71 C 23.570312 -69.488281 24.421875 -67.628906 24.421875 -65.421875 C 24.421875 -63.210938 23.570312 -61.367188 21.875 -59.890625 C 20.1875 -58.421875 18.273438 -57.6875 16.140625 -57.6875 C 13.921875 -57.6875 11.945312 -58.421875 10.21875 -59.890625 C 8.488281 -61.367188 7.625 -63.210938 7.625 -65.421875 Z M 7.625 -65.421875 "/></g></g><g style="fill:#000000;fill-opacity:1;"><g transform="translate(976.212584, 429.618772)"><path style="stroke:none" d="M 41.328125 -50.71875 C 45.816406 -50.71875 49.828125 -49.648438 53.359375 -47.515625 C 56.898438 -45.378906 59.679688 -42.320312 61.703125 -38.34375 C 63.734375 -34.363281 64.75 -29.6875 64.75 -24.3125 C 64.75 -19.007812 63.625 -14.421875 61.375 -10.546875 C 59.132812 -6.679688 56.003906 -3.734375 51.984375 -1.703125 C 47.972656 0.316406 43.390625 1.328125 38.234375 1.328125 C 35.429688 1.328125 32.6875 0.832031 30 -0.15625 C 27.3125 -1.15625 25.082031 -2.578125 23.3125 -4.421875 L 23.3125 23.203125 L 7.953125 23.203125 L 7.953125 -49.390625 L 21.21875 -49.390625 L 22.546875 -43.640625 C 28.429688 -48.359375 34.691406 -50.71875 41.328125 -50.71875 Z M 35.140625 -10.828125 C 38.972656 -10.828125 42.25 -12.078125 44.96875 -14.578125 C 47.695312 -17.085938 49.0625 -20.257812 49.0625 -24.09375 C 49.0625 -28.070312 47.828125 -31.332031 45.359375 -33.875 C 42.890625 -36.414062 39.851562 -37.6875 36.25 -37.6875 C 33.226562 -37.6875 30.664062 -37.078125 28.5625 -35.859375 C 26.46875 -34.640625 24.753906 -32.816406 23.421875 -30.390625 L 23.421875 -18.5625 C 24.234375 -16.207031 25.6875 -14.328125 27.78125 -12.921875 C 29.882812 -11.523438 32.335938 -10.828125 35.140625 -10.828125 Z M 35.140625 -10.828125 "/></g></g><g style="fill:#000000;fill-opacity:1;"><g transform="translate(1045.156977, 429.618772)"><path style="stroke:none" d="M 41.328125 -50.71875 C 45.816406 -50.71875 49.828125 -49.648438 53.359375 -47.515625 C 56.898438 -45.378906 59.679688 -42.320312 61.703125 -38.34375 C 63.734375 -34.363281 64.75 -29.6875 64.75 -24.3125 C 64.75 -19.007812 63.625 -14.421875 61.375 -10.546875 C 59.132812 -6.679688 56.003906 -3.734375 51.984375 -1.703125 C 47.972656 0.316406 43.390625 1.328125 38.234375 1.328125 C 35.429688 1.328125 32.6875 0.832031 30 -0.15625 C 27.3125 -1.15625 25.082031 -2.578125 23.3125 -4.421875 L 23.3125 23.203125 L 7.953125 23.203125 L 7.953125 -49.390625 L 21.21875 -49.390625 L 22.546875 -43.640625 C 28.429688 -48.359375 34.691406 -50.71875 41.328125 -50.71875 Z M 35.140625 -10.828125 C 38.972656 -10.828125 42.25 -12.078125 44.96875 -14.578125 C 47.695312 -17.085938 49.0625 -20.257812 49.0625 -24.09375 C 49.0625 -28.070312 47.828125 -31.332031 45.359375 -33.875 C 42.890625 -36.414062 39.851562 -37.6875 36.25 -37.6875 C 33.226562 -37.6875 30.664062 -37.078125 28.5625 -35.859375 C 26.46875 -34.640625 24.753906 -32.816406 23.421875 -30.390625 L 23.421875 -18.5625 C 24.234375 -16.207031 25.6875 -14.328125 27.78125 -12.921875 C 29.882812 -11.523438 32.335938 -10.828125 35.140625 -10.828125 Z M 35.140625 -10.828125 "/></g></g><g style="fill:#000000;fill-opacity:1;"><g transform="translate(1114.101371, 429.618772)"><path style="stroke:none" d="M 23.421875 -48.28125 L 23.421875 0 L 7.953125 0 L 7.953125 -48.28125 Z M 7.625 -65.421875 C 7.625 -67.628906 8.488281 -69.488281 10.21875 -71 C 11.945312 -72.507812 13.921875 -73.265625 16.140625 -73.265625 C 18.273438 -73.265625 20.1875 -72.507812 21.875 -71 C 23.570312 -69.488281 24.421875 -67.628906 24.421875 -65.421875 C 24.421875 -63.210938 23.570312 -61.367188 21.875 -59.890625 C 20.1875 -58.421875 18.273438 -57.6875 16.140625 -57.6875 C 13.921875 -57.6875 11.945312 -58.421875 10.21875 -59.890625 C 8.488281 -61.367188 7.625 -63.210938 7.625 -65.421875 Z M 7.625 -65.421875 "/></g></g><g style="fill:#000000;fill-opacity:1;"><g transform="translate(1145.479884, 429.618772)"><path style="stroke:none" d="M 41.546875 -50.609375 C 46.117188 -50.609375 49.929688 -49.242188 52.984375 -46.515625 C 56.046875 -43.796875 57.613281 -40.335938 57.6875 -36.140625 L 57.6875 0 L 42.21875 0 L 42.21875 -30.390625 C 41.988281 -35.097656 39.628906 -37.453125 35.140625 -37.453125 C 31.597656 -37.453125 28.757812 -35.796875 26.625 -32.484375 C 24.488281 -29.171875 23.421875 -24.898438 23.421875 -19.671875 L 23.421875 0 L 7.953125 0 L 7.953125 -48.28125 L 21.984375 -48.28125 L 23.09375 -40.546875 C 24.863281 -43.722656 27.3125 -46.191406 30.4375 -47.953125 C 33.570312 -49.722656 37.273438 -50.609375 41.546875 -50.609375 Z M 41.546875 -50.609375 "/></g></g><g style="fill:#000000;fill-opacity:1;"><g transform="translate(1211.109658, 429.618772)"><path style="stroke:none" d="M 32.046875 -11.828125 C 35.140625 -11.828125 38.34375 -12.894531 41.65625 -15.03125 L 48.515625 -3.53125 C 45.859375 -2.0625 43.054688 -0.882812 40.109375 0 C 37.160156 0.882812 34.363281 1.328125 31.71875 1.328125 C 25.96875 1.328125 21.007812 0.242188 16.84375 -1.921875 C 12.6875 -4.097656 9.539062 -7.15625 7.40625 -11.09375 C 5.269531 -15.039062 4.203125 -19.554688 4.203125 -24.640625 C 4.203125 -29.359375 5.4375 -33.703125 7.90625 -37.671875 C 10.375 -41.648438 13.742188 -44.800781 18.015625 -47.125 C 22.285156 -49.445312 26.960938 -50.609375 32.046875 -50.609375 C 38.972656 -50.609375 44.660156 -48.582031 49.109375 -44.53125 C 53.566406 -40.476562 56.460938 -34.695312 57.796875 -27.1875 L 22.4375 -15.90625 C 24.789062 -13.1875 27.992188 -11.828125 32.046875 -11.828125 Z M 30.828125 -38.5625 C 27.367188 -38.5625 24.609375 -37.382812 22.546875 -35.03125 C 20.484375 -32.675781 19.453125 -29.507812 19.453125 -25.53125 L 19.453125 -24.53125 L 40.65625 -31.71875 C 39.113281 -36.28125 35.835938 -38.5625 30.828125 -38.5625 Z M 30.828125 -38.5625 "/></g></g><g style="fill:#000000;fill-opacity:1;"><g transform="translate(518.793076, 546.438604)"><path style="stroke:none" d="M 53.921875 -61.65625 C 46.847656 -65.5625 40.695312 -67.515625 35.46875 -67.515625 C 31.9375 -67.515625 29.191406 -66.8125 27.234375 -65.40625 C 25.285156 -64.007812 24.3125 -61.914062 24.3125 -59.125 C 24.3125 -56.539062 25.726562 -54.269531 28.5625 -52.3125 C 31.394531 -50.363281 35.171875 -48.503906 39.890625 -46.734375 C 43.722656 -45.335938 47 -43.738281 49.71875 -41.9375 C 52.445312 -40.132812 54.710938 -37.644531 56.515625 -34.46875 C 58.328125 -31.300781 59.234375 -27.289062 59.234375 -22.4375 C 59.234375 -18.238281 58.144531 -14.351562 55.96875 -10.78125 C 53.789062 -7.207031 50.601562 -4.367188 46.40625 -2.265625 C 42.207031 -0.160156 37.195312 0.890625 31.375 0.890625 C 26.519531 0.890625 21.695312 0.171875 16.90625 -1.265625 C 12.113281 -2.703125 7.65625 -4.894531 3.53125 -7.84375 L 10.609375 -20.328125 C 13.410156 -18.265625 16.613281 -16.570312 20.21875 -15.25 C 23.832031 -13.925781 27.078125 -13.265625 29.953125 -13.265625 C 33.335938 -13.265625 36.28125 -13.976562 38.78125 -15.40625 C 41.289062 -16.84375 42.546875 -19.1875 42.546875 -22.4375 C 42.546875 -26.632812 38.601562 -30.28125 30.71875 -33.375 C 26.070312 -35.21875 22.203125 -36.984375 19.109375 -38.671875 C 16.015625 -40.367188 13.34375 -42.800781 11.09375 -45.96875 C 8.851562 -49.132812 7.734375 -53.113281 7.734375 -57.90625 C 7.734375 -64.90625 10.035156 -70.539062 14.640625 -74.8125 C 19.242188 -79.082031 25.378906 -81.398438 33.046875 -81.765625 C 39.078125 -81.765625 44.117188 -81.082031 48.171875 -79.71875 C 52.222656 -78.363281 56.164062 -76.429688 60 -73.921875 Z M 53.921875 -61.65625 "/></g></g><g style="fill:#000000;fill-opacity:1;"><g transform="translate(583.20746, 546.438604)"><path style="stroke:none" d="M 41.328125 -50.71875 C 45.816406 -50.71875 49.828125 -49.648438 53.359375 -47.515625 C 56.898438 -45.378906 59.679688 -42.320312 61.703125 -38.34375 C 63.734375 -34.363281 64.75 -29.6875 64.75 -24.3125 C 64.75 -19.007812 63.625 -14.421875 61.375 -10.546875 C 59.132812 -6.679688 56.003906 -3.734375 51.984375 -1.703125 C 47.972656 0.316406 43.390625 1.328125 38.234375 1.328125 C 35.429688 1.328125 32.6875 0.832031 30 -0.15625 C 27.3125 -1.15625 25.082031 -2.578125 23.3125 -4.421875 L 23.3125 23.203125 L 7.953125 23.203125 L 7.953125 -49.390625 L 21.21875 -49.390625 L 22.546875 -43.640625 C 28.429688 -48.359375 34.691406 -50.71875 41.328125 -50.71875 Z M 35.140625 -10.828125 C 38.972656 -10.828125 42.25 -12.078125 44.96875 -14.578125 C 47.695312 -17.085938 49.0625 -20.257812 49.0625 -24.09375 C 49.0625 -28.070312 47.828125 -31.332031 45.359375 -33.875 C 42.890625 -36.414062 39.851562 -37.6875 36.25 -37.6875 C 33.226562 -37.6875 30.664062 -37.078125 28.5625 -35.859375 C 26.46875 -34.640625 24.753906 -32.816406 23.421875 -30.390625 L 23.421875 -18.5625 C 24.234375 -16.207031 25.6875 -14.328125 27.78125 -12.921875 C 29.882812 -11.523438 32.335938 -10.828125 35.140625 -10.828125 Z M 35.140625 -10.828125 "/></g></g><g style="fill:#000000;fill-opacity:1;"><g transform="translate(652.151853, 546.438604)"><path style="stroke:none" d="M 4.203125 -24.75 C 4.203125 -29.6875 5.359375 -34.109375 7.671875 -38.015625 C 9.992188 -41.921875 13.273438 -44.992188 17.515625 -47.234375 C 21.753906 -49.484375 26.5625 -50.609375 31.9375 -50.609375 C 37.3125 -50.609375 42.039062 -49.484375 46.125 -47.234375 C 50.21875 -44.992188 53.367188 -41.921875 55.578125 -38.015625 C 57.785156 -34.109375 58.890625 -29.6875 58.890625 -24.75 C 58.890625 -19.8125 57.785156 -15.351562 55.578125 -11.375 C 53.367188 -7.40625 50.21875 -4.296875 46.125 -2.046875 C 42.039062 0.203125 37.238281 1.328125 31.71875 1.328125 C 26.332031 1.328125 21.554688 0.28125 17.390625 -1.8125 C 13.234375 -3.914062 9.992188 -6.921875 7.671875 -10.828125 C 5.359375 -14.734375 4.203125 -19.375 4.203125 -24.75 Z M 19.78125 -24.640625 C 19.78125 -20.804688 20.882812 -17.617188 23.09375 -15.078125 C 25.300781 -12.535156 28.101562 -11.265625 31.5 -11.265625 C 35.03125 -11.265625 37.878906 -12.515625 40.046875 -15.015625 C 42.222656 -17.523438 43.3125 -20.734375 43.3125 -24.640625 C 43.3125 -28.546875 42.222656 -31.75 40.046875 -34.25 C 37.878906 -36.757812 35.03125 -38.015625 31.5 -38.015625 C 28.101562 -38.015625 25.300781 -36.742188 23.09375 -34.203125 C 20.882812 -31.660156 19.78125 -28.472656 19.78125 -24.640625 Z M 19.78125 -24.640625 "/></g></g><g style="fill:#000000;fill-opacity:1;"><g transform="translate(715.240392, 546.438604)"><path style="stroke:none" d="M 41.546875 -50.609375 C 46.117188 -50.609375 49.929688 -49.242188 52.984375 -46.515625 C 56.046875 -43.796875 57.613281 -40.335938 57.6875 -36.140625 L 57.6875 0 L 42.21875 0 L 42.21875 -30.390625 C 41.988281 -35.097656 39.628906 -37.453125 35.140625 -37.453125 C 31.597656 -37.453125 28.757812 -35.796875 26.625 -32.484375 C 24.488281 -29.171875 23.421875 -24.898438 23.421875 -19.671875 L 23.421875 0 L 7.953125 0 L 7.953125 -48.28125 L 21.984375 -48.28125 L 23.09375 -40.546875 C 24.863281 -43.722656 27.3125 -46.191406 30.4375 -47.953125 C 33.570312 -49.722656 37.273438 -50.609375 41.546875 -50.609375 Z M 41.546875 -50.609375 "/></g></g><g style="fill:#000000;fill-opacity:1;"><g transform="translate(780.870155, 546.438604)"><path style="stroke:none" d="M 61.984375 -48.28125 L 61.984375 0 C 61.984375 4.5625 60.675781 8.703125 58.0625 12.421875 C 55.445312 16.148438 51.910156 19.0625 47.453125 21.15625 C 43.003906 23.257812 38.160156 24.3125 32.921875 24.3125 C 28.953125 24.3125 25.472656 23.832031 22.484375 22.875 C 19.503906 21.914062 17.109375 20.847656 15.296875 19.671875 C 13.492188 18.492188 11.34375 16.875 8.84375 14.8125 L 17.90625 4.203125 C 20.113281 6.265625 22.300781 7.882812 24.46875 9.0625 C 26.644531 10.238281 29.390625 10.828125 32.703125 10.828125 C 36.609375 10.828125 39.882812 9.847656 42.53125 7.890625 C 45.1875 5.941406 46.515625 3.238281 46.515625 -0.21875 L 46.515625 -7.078125 C 45.046875 -4.566406 42.78125 -2.535156 39.71875 -0.984375 C 36.664062 0.554688 32.929688 1.328125 28.515625 1.328125 C 24.160156 1.328125 20.125 0.203125 16.40625 -2.046875 C 12.6875 -4.296875 9.722656 -7.390625 7.515625 -11.328125 C 5.304688 -15.265625 4.203125 -19.628906 4.203125 -24.421875 C 4.203125 -29.285156 5.359375 -33.742188 7.671875 -37.796875 C 9.992188 -41.847656 13.050781 -45.015625 16.84375 -47.296875 C 20.644531 -49.578125 24.644531 -50.71875 28.84375 -50.71875 C 32.820312 -50.71875 36.359375 -50.144531 39.453125 -49 C 42.546875 -47.863281 44.898438 -46.375 46.515625 -44.53125 L 47.734375 -48.28125 Z M 33.15625 -11.265625 C 39.34375 -11.265625 43.796875 -13.695312 46.515625 -18.5625 L 46.515625 -30.390625 C 45.484375 -32.742188 43.769531 -34.617188 41.375 -36.015625 C 38.988281 -37.421875 36.25 -38.125 33.15625 -38.125 C 29.394531 -38.125 26.222656 -36.867188 23.640625 -34.359375 C 21.066406 -31.859375 19.78125 -28.691406 19.78125 -24.859375 C 19.78125 -21.023438 21.066406 -17.800781 23.640625 -15.1875 C 26.222656 -12.570312 29.394531 -11.265625 33.15625 -11.265625 Z M 33.15625 -11.265625 "/></g></g><g style="fill:#000000;fill-opacity:1;"><g transform="translate(850.808929, 546.438604)"><path style="stroke:none" d="M 32.046875 -11.828125 C 35.140625 -11.828125 38.34375 -12.894531 41.65625 -15.03125 L 48.515625 -3.53125 C 45.859375 -2.0625 43.054688 -0.882812 40.109375 0 C 37.160156 0.882812 34.363281 1.328125 31.71875 1.328125 C 25.96875 1.328125 21.007812 0.242188 16.84375 -1.921875 C 12.6875 -4.097656 9.539062 -7.15625 7.40625 -11.09375 C 5.269531 -15.039062 4.203125 -19.554688 4.203125 -24.640625 C 4.203125 -29.359375 5.4375 -33.703125 7.90625 -37.671875 C 10.375 -41.648438 13.742188 -44.800781 18.015625 -47.125 C 22.285156 -49.445312 26.960938 -50.609375 32.046875 -50.609375 C 38.972656 -50.609375 44.660156 -48.582031 49.109375 -44.53125 C 53.566406 -40.476562 56.460938 -34.695312 57.796875 -27.1875 L 22.4375 -15.90625 C 24.789062 -13.1875 27.992188 -11.828125 32.046875 -11.828125 Z M 30.828125 -38.5625 C 27.367188 -38.5625 24.609375 -37.382812 22.546875 -35.03125 C 20.484375 -32.675781 19.453125 -29.507812 19.453125 -25.53125 L 19.453125 -24.53125 L 40.65625 -31.71875 C 39.113281 -36.28125 35.835938 -38.5625 30.828125 -38.5625 Z M 30.828125 -38.5625 "/></g></g><g style="fill:#000000;fill-opacity:1;"><g transform="translate(911.908694, 546.438604)"><path style="stroke:none" d=""/></g></g><g style="fill:#000000;fill-opacity:1;"><g transform="translate(947.817216, 546.438604)"><path style="stroke:none" d="M 76.46875 -8.171875 C 75.21875 -6.847656 72.988281 -5.46875 69.78125 -4.03125 C 66.570312 -2.59375 63.035156 -1.410156 59.171875 -0.484375 C 55.304688 0.429688 51.789062 0.890625 48.625 0.890625 C 40 0.890625 32.425781 -0.785156 25.90625 -4.140625 C 19.394531 -7.492188 14.367188 -12.132812 10.828125 -18.0625 C 7.296875 -24 5.53125 -30.757812 5.53125 -38.34375 C 5.53125 -47.84375 7.40625 -55.890625 11.15625 -62.484375 C 14.914062 -69.078125 19.960938 -74.015625 26.296875 -77.296875 C 32.628906 -80.578125 39.628906 -82.21875 47.296875 -82.21875 C 52.234375 -82.21875 56.875 -81.660156 61.21875 -80.546875 C 65.5625 -79.441406 69.390625 -78.007812 72.703125 -76.25 L 67.515625 -61.328125 C 65.378906 -62.503906 62.453125 -63.585938 58.734375 -64.578125 C 55.015625 -65.578125 51.898438 -66.078125 49.390625 -66.078125 C 40.554688 -66.078125 33.796875 -63.863281 29.109375 -59.4375 C 24.429688 -55.019531 22.09375 -48.46875 22.09375 -39.78125 C 22.09375 -34.769531 23.234375 -30.40625 25.515625 -26.6875 C 27.804688 -22.96875 30.992188 -20.113281 35.078125 -18.125 C 39.171875 -16.132812 43.832031 -15.140625 49.0625 -15.140625 C 54.070312 -15.140625 57.789062 -15.835938 60.21875 -17.234375 L 60.21875 -27.078125 L 46.1875 -27.078125 L 46.1875 -42.546875 L 76.46875 -42.546875 Z M 76.46875 -8.171875 "/></g></g><g style="fill:#000000;fill-opacity:1;"><g transform="translate(1032.008946, 546.438604)"><path style="stroke:none" d="M 56.578125 -48.28125 L 56.578125 0 L 42.546875 0 L 41.4375 -7.734375 C 39.738281 -4.640625 37.359375 -2.1875 34.296875 -0.375 C 31.242188 1.425781 27.65625 2.328125 23.53125 2.328125 C 19.113281 2.328125 15.429688 0.960938 12.484375 -1.765625 C 9.535156 -4.492188 8.023438 -7.957031 7.953125 -12.15625 L 7.953125 -48.28125 L 23.421875 -48.28125 L 23.421875 -17.90625 C 23.640625 -13.1875 25.816406 -10.828125 29.953125 -10.828125 C 33.335938 -10.828125 36.039062 -12.484375 38.0625 -15.796875 C 40.09375 -19.117188 41.109375 -23.394531 41.109375 -28.625 L 41.109375 -48.28125 Z M 56.578125 -48.28125 "/></g></g><g style="fill:#000000;fill-opacity:1;"><g transform="translate(1096.533798, 546.438604)"><path style="stroke:none" d="M 23.421875 -48.28125 L 23.421875 0 L 7.953125 0 L 7.953125 -48.28125 Z M 7.625 -65.421875 C 7.625 -67.628906 8.488281 -69.488281 10.21875 -71 C 11.945312 -72.507812 13.921875 -73.265625 16.140625 -73.265625 C 18.273438 -73.265625 20.1875 -72.507812 21.875 -71 C 23.570312 -69.488281 24.421875 -67.628906 24.421875 -65.421875 C 24.421875 -63.210938 23.570312 -61.367188 21.875 -59.890625 C 20.1875 -58.421875 18.273438 -57.6875 16.140625 -57.6875 C 13.921875 -57.6875 11.945312 -58.421875 10.21875 -59.890625 C 8.488281 -61.367188 7.625 -63.210938 7.625 -65.421875 Z M 7.625 -65.421875 "/></g></g><g style="fill:#000000;fill-opacity:1;"><g transform="translate(1127.912359, 546.438604)"><path style="stroke:none" d="M 61 -87.1875 L 61 0 L 45.53125 0 L 45.53125 -5.078125 C 39.925781 -0.804688 33.957031 1.328125 27.625 1.328125 C 23.132812 1.328125 19.117188 0.257812 15.578125 -1.875 C 12.046875 -4.007812 9.265625 -7.066406 7.234375 -11.046875 C 5.210938 -15.023438 4.203125 -19.703125 4.203125 -25.078125 C 4.203125 -30.390625 5.285156 -34.976562 7.453125 -38.84375 C 9.628906 -42.707031 12.628906 -45.648438 16.453125 -47.671875 C 20.285156 -49.703125 24.671875 -50.71875 29.609375 -50.71875 C 32.773438 -50.71875 35.757812 -50.21875 38.5625 -49.21875 C 41.363281 -48.226562 43.722656 -46.773438 45.640625 -44.859375 L 45.640625 -87.1875 Z M 32.703125 -11.71875 C 35.796875 -11.71875 38.375 -12.320312 40.4375 -13.53125 C 42.5 -14.75 44.195312 -16.570312 45.53125 -19 L 45.53125 -30.828125 C 44.644531 -33.179688 43.054688 -35.054688 40.765625 -36.453125 C 38.484375 -37.859375 35.796875 -38.5625 32.703125 -38.5625 C 29.242188 -38.5625 26.242188 -37.304688 23.703125 -34.796875 C 21.160156 -32.296875 19.890625 -29.128906 19.890625 -25.296875 C 19.890625 -22.796875 20.476562 -20.492188 21.65625 -18.390625 C 22.832031 -16.296875 24.394531 -14.660156 26.34375 -13.484375 C 28.300781 -12.304688 30.421875 -11.71875 32.703125 -11.71875 Z M 32.703125 -11.71875 "/></g></g><g style="fill:#000000;fill-opacity:1;"><g transform="translate(1196.856753, 546.438604)"><path style="stroke:none" d="M 32.046875 -11.828125 C 35.140625 -11.828125 38.34375 -12.894531 41.65625 -15.03125 L 48.515625 -3.53125 C 45.859375 -2.0625 43.054688 -0.882812 40.109375 0 C 37.160156 0.882812 34.363281 1.328125 31.71875 1.328125 C 25.96875 1.328125 21.007812 0.242188 16.84375 -1.921875 C 12.6875 -4.097656 9.539062 -7.15625 7.40625 -11.09375 C 5.269531 -15.039062 4.203125 -19.554688 4.203125 -24.640625 C 4.203125 -29.359375 5.4375 -33.703125 7.90625 -37.671875 C 10.375 -41.648438 13.742188 -44.800781 18.015625 -47.125 C 22.285156 -49.445312 26.960938 -50.609375 32.046875 -50.609375 C 38.972656 -50.609375 44.660156 -48.582031 49.109375 -44.53125 C 53.566406 -40.476562 56.460938 -34.695312 57.796875 -27.1875 L 22.4375 -15.90625 C 24.789062 -13.1875 27.992188 -11.828125 32.046875 -11.828125 Z M 30.828125 -38.5625 C 27.367188 -38.5625 24.609375 -37.382812 22.546875 -35.03125 C 20.484375 -32.675781 19.453125 -29.507812 19.453125 -25.53125 L 19.453125 -24.53125 L 40.65625 -31.71875 C 39.113281 -36.28125 35.835938 -38.5625 30.828125 -38.5625 Z M 30.828125 -38.5625 "/></g></g><g clip-rule="nonzero" clip-path="url(#5e1e470946)"><path style=" stroke:none;fill-rule:nonzero;fill:#d19840;fill-opacity:1;" d="M 240.035156 608.785156 C 234.277344 606.765625 228.828125 604.375 223.714844 601.597656 C 223.515625 500.445312 223.683594 399.269531 223.746094 298.078125 C 228.855469 290.773438 234.296875 284.125 240.050781 278.285156 C 240.023438 388.46875 239.914062 498.636719 240.035156 608.785156 Z M 240.035156 608.785156 "/></g><path style=" stroke:none;fill-rule:nonzero;fill:#d19840;fill-opacity:1;" d="M 189.304688 501.207031 C 188.761719 520.320312 185.597656 538.59375 182.09375 556.855469 C 175.417969 542.429688 171.21875 525.265625 169.714844 505.21875 C 168.207031 484.90625 169.539062 460.6875 173.492188 435.40625 C 179.199219 460.078125 190.160156 471.253906 189.304688 501.207031 Z M 189.304688 501.207031 "/><path style=" stroke:none;fill-rule:nonzero;fill:#d19840;fill-opacity:1;" d="M 210.890625 502.859375 C 210.054688 530.492188 204.097656 556.429688 199.597656 583.101562 C 195.027344 578.226562 190.9375 572.804688 187.355469 566.824219 C 192.140625 544.347656 197.128906 522.152344 197.722656 498.59375 C 198.550781 465.632812 185.371094 459.140625 179.132812 431.257812 C 178.101562 426.644531 177.417969 421.527344 176.988281 416.082031 C 181.144531 395.839844 186.902344 375.382812 194.15625 356.097656 C 193.332031 380.933594 191.464844 409.355469 195.347656 431.355469 C 200.207031 458.929688 211.816406 471.960938 210.890625 502.859375 Z M 210.890625 502.859375 "/><g clip-rule="nonzero" clip-path="url(#a90dd0f662)"><path style=" stroke:none;fill-rule:nonzero;fill:#d19840;fill-opacity:1;" d="M 217.394531 597.867188 C 212.808594 594.929688 208.523438 591.640625 204.550781 588 C 208.085938 561.207031 213.109375 535.085938 213.996094 507.507812 C 214.945312 477.980469 205.234375 459.21875 201.632812 431.652344 C 198.167969 405.121094 197.574219 375.933594 198.015625 346.296875 C 203.515625 332.949219 209.757812 320.320312 216.703125 308.894531 C 216.285156 350.1875 215.988281 391.554688 217.28125 432.527344 C 219.039062 488.40625 217.808594 542.566406 217.394531 597.867188 Z M 217.394531 597.867188 "/></g><g clip-rule="nonzero" clip-path="url(#876088af01)"><path style=" stroke:none;fill-rule:nonzero;fill:#d19840;fill-opacity:1;" d="M 354.167969 610.414062 C 348.933594 611.738281 343.492188 612.855469 337.851562 613.78125 C 338.558594 554.046875 341.957031 491.117188 337.722656 432.539062 C 335.054688 395.59375 319.734375 372.09375 315.039062 337.171875 C 311.710938 312.453125 320.207031 288.605469 328.09375 265.355469 C 332.945312 268.378906 337.714844 271.929688 342.390625 275.945312 C 336.304688 296.566406 330.964844 317.609375 333.660156 338.84375 C 337.976562 372.824219 351.648438 396.816406 354.007812 432.539062 C 357.824219 490.304688 354.886719 551.597656 354.167969 610.414062 Z M 354.167969 610.414062 "/></g><g clip-rule="nonzero" clip-path="url(#391d89e896)"><path style=" stroke:none;fill-rule:nonzero;fill:#d19840;fill-opacity:1;" d="M 270.597656 563.828125 C 268.234375 583.265625 265.074219 597.050781 263.632812 614.710938 C 257.691406 613.734375 251.996094 612.457031 246.558594 610.871094 C 246.519531 498.066406 246.554688 385.15625 246.5625 272.160156 C 247.691406 271.175781 248.828125 270.226562 249.980469 269.308594 C 254.21875 265.933594 258.472656 263.136719 262.726562 260.894531 C 262.304688 318.683594 260.980469 377.054688 263.246094 434.519531 C 264.84375 474.9375 275.484375 523.660156 270.597656 563.828125 Z M 270.597656 563.828125 "/></g><g clip-rule="nonzero" clip-path="url(#84ac3e1a3d)"><path style=" stroke:none;fill-rule:nonzero;fill:#d19840;fill-opacity:1;" d="M 295.941406 576.519531 C 293.023438 596.53125 288.292969 599.503906 286.429688 616.984375 C 280.898438 616.761719 275.535156 616.328125 270.347656 615.683594 C 272.292969 599.34375 276.585938 591.210938 278.796875 572.25 C 283.796875 529.355469 271.777344 478.039062 269.851562 435.003906 C 267.230469 376.484375 268.800781 316.789062 269.242188 257.875 C 274.679688 255.707031 280.113281 254.402344 285.519531 253.886719 C 285.019531 314.238281 283.289062 374.886719 286.15625 435.109375 C 288.203125 478.085938 302.140625 533.953125 295.941406 576.519531 Z M 295.941406 576.519531 "/></g><g clip-rule="nonzero" clip-path="url(#cbfd66e6fb)"><path style=" stroke:none;fill-rule:nonzero;fill:#d19840;fill-opacity:1;" d="M 308.515625 616.835938 C 303.203125 617.105469 298.023438 617.210938 292.96875 617.152344 C 294.785156 599.605469 299.121094 589.558594 301.152344 570.097656 C 305.597656 527.496094 294.773438 477.527344 292.621094 434.898438 C 289.5 373.265625 290.273438 314.59375 291.644531 253.636719 C 295.953125 253.691406 300.246094 254.234375 304.5 255.230469 C 299.019531 282.414062 291.527344 310.007812 294.050781 337.933594 C 297.035156 371 306.757812 399.300781 308.566406 433.222656 C 311.914062 495.972656 309.042969 555.105469 308.515625 616.835938 Z M 308.515625 616.835938 "/></g><g clip-rule="nonzero" clip-path="url(#ffc903d68d)"><path style=" stroke:none;fill-rule:nonzero;fill:#d19840;fill-opacity:1;" d="M 331.335938 614.753906 C 326.207031 615.449219 320.921875 615.996094 315.496094 616.394531 C 315.324219 616.410156 315.15625 616.421875 314.988281 616.433594 C 315.386719 555.007812 317.917969 494.226562 314.945312 432.597656 C 313.230469 397.0625 300.296875 371.394531 296.480469 337.414062 C 293.390625 309.921875 302.480469 282.925781 309.441406 256.589844 C 313.839844 257.976562 318.195312 259.835938 322.496094 262.125 C 314.179688 286.246094 304.550781 310.957031 308.066406 336.84375 C 312.84375 371.976562 328.5 395.320312 331.21875 432.539062 C 335.519531 491.390625 332.023438 554.746094 331.335938 614.753906 Z M 331.335938 614.753906 "/></g><g clip-rule="nonzero" clip-path="url(#ba56eadf48)"><path style=" stroke:none;fill-rule:nonzero;fill:#d19840;fill-opacity:1;" d="M 377.035156 602.734375 C 371.867188 604.972656 366.414062 606.933594 360.683594 608.628906 C 361.410156 550.320312 364.128906 489.851562 360.515625 432.539062 C 358.292969 397.347656 345.335938 373.152344 341.203125 339.582031 C 338.785156 319.988281 342.933594 300.417969 348.148438 281.164062 C 353.070312 285.863281 357.867188 291.0625 362.527344 296.6875 C 359.683594 311.019531 357.945312 325.585938 359.097656 340.734375 C 361.546875 372.824219 374.816406 398.96875 376.796875 432.539062 C 380.074219 488.085938 377.804688 546.222656 377.035156 602.734375 Z M 377.035156 602.734375 "/></g><g clip-rule="nonzero" clip-path="url(#61a06a8749)"><path style=" stroke:none;fill-rule:nonzero;fill:#d19840;fill-opacity:1;" d="M 383.5625 599.671875 C 384.3125 543.589844 386.285156 486.078125 382.820312 430.953125 C 380.785156 398.519531 368.746094 372.113281 366.390625 340.910156 C 365.441406 328.3125 366.414062 316.066406 368.324219 303.996094 C 375.601562 313.558594 382.492188 324.125 388.894531 335.359375 C 388.90625 336.746094 388.9375 338.128906 388.980469 339.519531 C 389.769531 364.871094 393.382812 390.402344 394.53125 415.867188 C 397.167969 474.300781 398.816406 531.738281 399.363281 589.898438 C 394.507812 593.554688 389.230469 596.804688 383.5625 599.671875 Z M 383.5625 599.671875 "/></g><path style=" stroke:none;fill-rule:nonzero;fill:#d19840;fill-opacity:1;" d="M 422.664062 564.003906 C 417.972656 571.917969 412.238281 578.835938 405.539062 584.828125 C 404.277344 525.699219 401.058594 467.757812 398.6875 408.128906 C 397.960938 389.804688 398.070312 371.722656 398.664062 353.753906 C 403.078125 362.667969 407.1875 371.863281 410.960938 381.199219 C 410.652344 384.78125 410.5 388.816406 410.546875 393.519531 C 410.976562 437.636719 421.574219 480.789062 422.375 525.296875 C 422.609375 538.183594 422.675781 551.089844 422.664062 564.003906 Z M 422.664062 564.003906 "/><path style=" stroke:none;fill-rule:nonzero;fill:#d19840;fill-opacity:1;" d="M 437.5625 506.273438 C 437.09375 523.320312 434.207031 538.089844 429.140625 550.789062 C 429.109375 542.285156 429.03125 533.789062 428.882812 525.296875 C 428.121094 481.796875 417.769531 439.601562 416.816406 396.566406 C 430.667969 435.179688 438.488281 474.910156 437.5625 506.273438 Z M 437.5625 506.273438 "/><g clip-rule="nonzero" clip-path="url(#37d21048b6)"><g clip-rule="nonzero" clip-path="url(#1c4b445e6d)"><path style=" stroke:none;fill-rule:nonzero;fill:#f58e26;fill-opacity:1;" d="M 192.382812 324.710938 L 399.496094 324.710938 L 399.496094 390.167969 L 192.382812 390.167969 Z M 192.382812 324.710938 "/></g></g><g clip-rule="nonzero" clip-path="url(#cb05fec8cf)"><g clip-rule="nonzero" clip-path="url(#1494c7f1e0)"><path style=" stroke:none;fill-rule:nonzero;fill:#48acbb;fill-opacity:1;" d="M 338.824219 286.59375 L 376.941406 286.59375 L 376.941406 324.710938 L 338.824219 324.710938 Z M 338.824219 286.59375 "/></g></g><g clip-rule="nonzero" clip-path="url(#7ada7d362f)"><g clip-rule="nonzero" clip-path="url(#c45f874269)"><path style=" stroke:none;fill-rule:nonzero;fill:#48acbb;fill-opacity:1;" d="M 289.574219 224.988281 L 351.183594 224.988281 L 351.183594 286.59375 L 289.574219 286.59375 Z M 289.574219 224.988281 "/></g></g><g clip-rule="nonzero" clip-path="url(#146ebfd6ef)"><g clip-rule="nonzero" clip-path="url(#5d2d2ad3f5)"><path style=" stroke:none;fill-rule:nonzero;fill:#48acbb;fill-opacity:1;" d="M 358.046875 185.65625 L 440.902344 185.65625 L 440.902344 268.511719 L 358.046875 268.511719 Z M 358.046875 185.65625 "/></g></g><g clip-rule="nonzero" clip-path="url(#cb01cec6fd)"><path style=" stroke:none;fill-rule:evenodd;fill:#f58e26;fill-opacity:1;" d="M 401.613281 185.65625 C 390.019531 185.65625 378.898438 190.261719 370.703125 198.460938 C 362.503906 206.660156 357.898438 217.777344 357.898438 229.375 C 357.898438 240.96875 362.503906 252.085938 370.703125 260.285156 C 378.898438 268.484375 390.019531 273.089844 401.613281 273.089844 C 408.894531 273.050781 416.046875 271.195312 422.425781 267.691406 L 443.890625 289.511719 C 447.679688 293.363281 453.832031 293.417969 457.6875 289.625 C 461.539062 285.835938 461.589844 279.683594 457.800781 275.832031 L 437.078125 254.761719 C 442.410156 247.367188 445.292969 238.488281 445.332031 229.375 C 445.332031 217.777344 440.722656 206.660156 432.527344 198.460938 C 424.328125 190.261719 413.207031 185.65625 401.613281 185.65625 Z M 402.113281 198.367188 C 409.859375 198.367188 417.289062 201.589844 422.769531 207.324219 C 428.246094 213.058594 431.324219 220.839844 431.324219 228.949219 C 431.304688 237.738281 427.671875 246.09375 421.355469 251.882812 C 421.214844 252.007812 421.078125 252.136719 420.941406 252.269531 C 420.863281 252.34375 420.792969 252.421875 420.71875 252.5 C 415.488281 257.035156 408.90625 259.519531 402.113281 259.527344 C 394.367188 259.527344 386.9375 256.304688 381.457031 250.570312 C 375.980469 244.835938 372.902344 237.058594 372.902344 228.949219 C 372.902344 220.839844 375.980469 213.058594 381.457031 207.324219 C 386.9375 201.589844 394.367188 198.367188 402.113281 198.367188 Z M 402.113281 198.367188 "/></g></g></svg>