<svg xmlns="http://www.w3.org/2000/svg" xmlns:xlink="http://www.w3.org/1999/xlink" width="1920" zoomAndPan="magnify" viewBox="0 0 1440 659.999997" height="880" preserveAspectRatio="xMidYMid meet" version="1.2"><defs><clipPath id="1b675d7ca0"><path d="M 109 272.640625 L 130 272.640625 L 130 554.890625 L 109 554.890625 Z M 109 272.640625 "/></clipPath><clipPath id="0c398a2da2"><path d="M 78 272.640625 L 104 272.640625 L 104 554.890625 L 78 554.890625 Z M 78 272.640625 "/></clipPath><clipPath id="ca77cb61e4"><path d="M 217 272.640625 L 267 272.640625 L 267 554.890625 L 217 554.890625 Z M 217 272.640625 "/></clipPath><clipPath id="1cfcfe78b2"><path d="M 136 272.640625 L 167 272.640625 L 167 554.890625 L 136 554.890625 Z M 136 272.640625 "/></clipPath><clipPath id="14a299fa12"><path d="M 162 272.640625 L 198 272.640625 L 198 554.890625 L 162 554.890625 Z M 162 272.640625 "/></clipPath><clipPath id="1dc4016ac3"><path d="M 188 272.640625 L 213 272.640625 L 213 554.890625 L 188 554.890625 Z M 188 272.640625 "/></clipPath><clipPath id="4af4a76e96"><path d="M 195 272.640625 L 240 272.640625 L 240 554.890625 L 195 554.890625 Z M 195 272.640625 "/></clipPath><clipPath id="0c0513a564"><path d="M 248 272.640625 L 294 272.640625 L 294 554.890625 L 248 554.890625 Z M 248 272.640625 "/></clipPath><clipPath id="8715a3ec8a"><path d="M 278 272.640625 L 319 272.640625 L 319 554.890625 L 278 554.890625 Z M 278 272.640625 "/></clipPath><clipPath id="40bf9ad145"><path d="M 317 279 L 347 279 L 347 554.890625 L 317 554.890625 Z M 317 279 "/></clipPath><clipPath id="021e25e09c"><path d="M 72.339844 245.152344 L 318.691406 245.152344 L 318.691406 323.011719 L 72.339844 323.011719 Z M 72.339844 245.152344 "/></clipPath><clipPath id="7e164e4847"><path d="M 195.503906 245.152344 C 127.480469 245.152344 72.339844 262.582031 72.339844 284.082031 C 72.339844 305.582031 127.480469 323.011719 195.503906 323.011719 C 263.523438 323.011719 318.664062 305.582031 318.664062 284.082031 C 318.664062 262.582031 263.523438 245.152344 195.503906 245.152344 Z M 195.503906 245.152344 "/></clipPath><clipPath id="9368384ff7"><path d="M 246.523438 199.816406 L 291.863281 199.816406 L 291.863281 245.152344 L 246.523438 245.152344 Z M 246.523438 199.816406 "/></clipPath><clipPath id="1caab5c907"><path d="M 269.195312 199.816406 C 256.675781 199.816406 246.523438 209.964844 246.523438 222.484375 C 246.523438 235.003906 256.675781 245.152344 269.195312 245.152344 C 281.714844 245.152344 291.863281 235.003906 291.863281 222.484375 C 291.863281 209.964844 281.714844 199.816406 269.195312 199.816406 Z M 269.195312 199.816406 "/></clipPath><clipPath id="5669ee7eef"><path d="M 187.945312 126.535156 L 261.222656 126.535156 L 261.222656 199.816406 L 187.945312 199.816406 Z M 187.945312 126.535156 "/></clipPath><clipPath id="05aa5d2a58"><path d="M 224.585938 126.535156 C 204.351562 126.535156 187.945312 142.941406 187.945312 163.175781 C 187.945312 183.410156 204.351562 199.816406 224.585938 199.816406 C 244.820312 199.816406 261.222656 183.410156 261.222656 163.175781 C 261.222656 142.941406 244.820312 126.535156 224.585938 126.535156 Z M 224.585938 126.535156 "/></clipPath><clipPath id="14f632db2f"><path d="M 269.390625 79.753906 L 367.941406 79.753906 L 367.941406 178.304688 L 269.390625 178.304688 Z M 269.390625 79.753906 "/></clipPath><clipPath id="a8061a17d6"><path d="M 318.664062 79.753906 C 291.449219 79.753906 269.390625 101.816406 269.390625 129.03125 C 269.390625 156.246094 291.449219 178.304688 318.664062 178.304688 C 345.878906 178.304688 367.941406 156.246094 367.941406 129.03125 C 367.941406 101.816406 345.878906 79.753906 318.664062 79.753906 Z M 318.664062 79.753906 "/></clipPath><clipPath id="bbf5de7ea5"><path d="M 269.195312 79.753906 L 392 79.753906 L 392 207 L 269.195312 207 Z M 269.195312 79.753906 "/></clipPath></defs><g id="999379bfcb"><g style="fill:#000000;fill-opacity:1;"><g transform="translate(460.589814, 369.937713)"><path style="stroke:none" d="M 71.09375 -96.71875 L 71.09375 -78.328125 L 47.578125 -78.328125 L 47.578125 0 L 28.515625 0 L 28.515625 -78.328125 L 5.90625 -78.328125 L 5.90625 -96.71875 Z M 71.09375 -96.71875 "/></g></g><g style="fill:#000000;fill-opacity:1;"><g transform="translate(537.602196, 369.937713)"><path style="stroke:none" d="M 49.421875 -60.1875 C 54.847656 -60.1875 59.378906 -58.566406 63.015625 -55.328125 C 66.648438 -52.085938 68.515625 -47.96875 68.609375 -42.96875 L 68.609375 0 L 50.203125 0 L 50.203125 -36.140625 C 49.941406 -41.742188 47.140625 -44.546875 41.796875 -44.546875 C 37.585938 -44.546875 34.210938 -42.570312 31.671875 -38.625 C 29.128906 -34.6875 27.859375 -29.609375 27.859375 -23.390625 L 27.859375 0 L 9.46875 0 L 9.46875 -103.6875 L 27.46875 -103.6875 L 27.46875 -48.359375 C 29.570312 -52.046875 32.484375 -54.9375 36.203125 -57.03125 C 39.929688 -59.132812 44.335938 -60.1875 49.421875 -60.1875 Z M 49.421875 -60.1875 "/></g></g><g style="fill:#000000;fill-opacity:1;"><g transform="translate(615.665955, 369.937713)"><path style="stroke:none" d="M 38.109375 -14.0625 C 41.785156 -14.0625 45.597656 -15.332031 49.546875 -17.875 L 57.6875 -4.203125 C 54.539062 -2.453125 51.210938 -1.050781 47.703125 0 C 44.203125 1.050781 40.875 1.578125 37.71875 1.578125 C 30.882812 1.578125 24.988281 0.285156 20.03125 -2.296875 C 15.082031 -4.878906 11.335938 -8.515625 8.796875 -13.203125 C 6.265625 -17.890625 5 -23.257812 5 -29.3125 C 5 -34.914062 6.460938 -40.082031 9.390625 -44.8125 C 12.328125 -49.539062 16.335938 -53.285156 21.421875 -56.046875 C 26.503906 -58.804688 32.066406 -60.1875 38.109375 -60.1875 C 46.347656 -60.1875 53.117188 -57.773438 58.421875 -52.953125 C 63.722656 -48.140625 67.160156 -41.265625 68.734375 -32.328125 L 26.671875 -18.921875 C 29.484375 -15.679688 33.296875 -14.0625 38.109375 -14.0625 Z M 36.671875 -45.859375 C 32.546875 -45.859375 29.253906 -44.457031 26.796875 -41.65625 C 24.347656 -38.851562 23.125 -35.085938 23.125 -30.359375 L 23.125 -29.171875 L 48.359375 -37.71875 C 46.523438 -43.144531 42.628906 -45.859375 36.671875 -45.859375 Z M 36.671875 -45.859375 "/></g></g><g style="fill:#000000;fill-opacity:1;"><g transform="translate(688.341465, 369.937713)"><path style="stroke:none" d=""/></g></g><g style="fill:#000000;fill-opacity:1;"><g transform="translate(731.05311, 369.937713)"><path style="stroke:none" d="M 41.796875 -96.71875 C 53.617188 -96.71875 62.769531 -93.804688 69.25 -87.984375 C 75.738281 -82.160156 78.984375 -74.210938 78.984375 -64.140625 C 78.984375 -58.347656 77.863281 -52.929688 75.625 -47.890625 C 73.394531 -42.859375 69.757812 -38.722656 64.71875 -35.484375 C 59.6875 -32.242188 53.179688 -30.625 45.203125 -30.625 L 31.546875 -30.625 L 31.546875 0 L 12.484375 0 L 12.484375 -96.71875 Z M 45.078125 -49.15625 C 48.671875 -49.15625 51.5625 -49.960938 53.75 -51.578125 C 55.9375 -53.203125 57.507812 -55.109375 58.46875 -57.296875 C 59.4375 -59.484375 59.921875 -61.585938 59.921875 -63.609375 C 59.921875 -67.023438 58.914062 -70.332031 56.90625 -73.53125 C 54.894531 -76.726562 50.992188 -78.328125 45.203125 -78.328125 L 31.546875 -78.328125 L 31.546875 -49.15625 Z M 45.078125 -49.15625 "/></g></g><g style="fill:#000000;fill-opacity:1;"><g transform="translate(814.63653, 369.937713)"><path style="stroke:none" d="M 49.421875 -60.1875 C 54.847656 -60.1875 59.378906 -58.566406 63.015625 -55.328125 C 66.648438 -52.085938 68.515625 -47.96875 68.609375 -42.96875 L 68.609375 0 L 50.203125 0 L 50.203125 -36.140625 C 49.941406 -41.742188 47.140625 -44.546875 41.796875 -44.546875 C 37.585938 -44.546875 34.210938 -42.570312 31.671875 -38.625 C 29.128906 -34.6875 27.859375 -29.609375 27.859375 -23.390625 L 27.859375 0 L 9.46875 0 L 9.46875 -103.6875 L 27.46875 -103.6875 L 27.46875 -48.359375 C 29.570312 -52.046875 32.484375 -54.9375 36.203125 -57.03125 C 39.929688 -59.132812 44.335938 -60.1875 49.421875 -60.1875 Z M 49.421875 -60.1875 "/></g></g><g style="fill:#000000;fill-opacity:1;"><g transform="translate(892.700274, 369.937713)"><path style="stroke:none" d="M 27.859375 -57.4375 L 27.859375 0 L 9.46875 0 L 9.46875 -57.4375 Z M 9.078125 -77.8125 C 9.078125 -80.4375 10.101562 -82.644531 12.15625 -84.4375 C 14.21875 -86.238281 16.5625 -87.140625 19.1875 -87.140625 C 21.726562 -87.140625 24.003906 -86.238281 26.015625 -84.4375 C 28.035156 -82.644531 29.046875 -80.4375 29.046875 -77.8125 C 29.046875 -75.175781 28.035156 -72.984375 26.015625 -71.234375 C 24.003906 -69.484375 21.726562 -68.609375 19.1875 -68.609375 C 16.5625 -68.609375 14.21875 -69.484375 12.15625 -71.234375 C 10.101562 -72.984375 9.078125 -75.175781 9.078125 -77.8125 Z M 9.078125 -77.8125 "/></g></g><g style="fill:#000000;fill-opacity:1;"><g transform="translate(930.023684, 369.937713)"><path style="stroke:none" d="M 27.859375 -103.6875 L 27.859375 0 L 9.46875 0 L 9.46875 -103.6875 Z M 27.859375 -103.6875 "/></g></g><g style="fill:#000000;fill-opacity:1;"><g transform="translate(967.347125, 369.937713)"><path style="stroke:none" d="M 27.859375 -57.4375 L 27.859375 0 L 9.46875 0 L 9.46875 -57.4375 Z M 9.078125 -77.8125 C 9.078125 -80.4375 10.101562 -82.644531 12.15625 -84.4375 C 14.21875 -86.238281 16.5625 -87.140625 19.1875 -87.140625 C 21.726562 -87.140625 24.003906 -86.238281 26.015625 -84.4375 C 28.035156 -82.644531 29.046875 -80.4375 29.046875 -77.8125 C 29.046875 -75.175781 28.035156 -72.984375 26.015625 -71.234375 C 24.003906 -69.484375 21.726562 -68.609375 19.1875 -68.609375 C 16.5625 -68.609375 14.21875 -69.484375 12.15625 -71.234375 C 10.101562 -72.984375 9.078125 -75.175781 9.078125 -77.8125 Z M 9.078125 -77.8125 "/></g></g><g style="fill:#000000;fill-opacity:1;"><g transform="translate(1004.670506, 369.937713)"><path style="stroke:none" d="M 49.15625 -60.328125 C 54.5 -60.328125 59.269531 -59.054688 63.46875 -56.515625 C 67.675781 -53.972656 70.984375 -50.332031 73.390625 -45.59375 C 75.804688 -40.863281 77.015625 -35.300781 77.015625 -28.90625 C 77.015625 -22.601562 75.675781 -17.148438 73 -12.546875 C 70.332031 -7.953125 66.609375 -4.445312 61.828125 -2.03125 C 57.054688 0.375 51.601562 1.578125 45.46875 1.578125 C 42.144531 1.578125 38.882812 0.988281 35.6875 -0.1875 C 32.488281 -1.375 29.835938 -3.0625 27.734375 -5.25 L 27.734375 27.59375 L 9.46875 27.59375 L 9.46875 -58.75 L 25.234375 -58.75 L 26.8125 -51.90625 C 33.820312 -57.519531 41.269531 -60.328125 49.15625 -60.328125 Z M 41.796875 -12.875 C 46.347656 -12.875 50.242188 -14.363281 53.484375 -17.34375 C 56.722656 -20.320312 58.34375 -24.09375 58.34375 -28.65625 C 58.34375 -33.382812 56.875 -37.257812 53.9375 -40.28125 C 51.007812 -43.300781 47.398438 -44.8125 43.109375 -44.8125 C 39.515625 -44.8125 36.46875 -44.085938 33.96875 -42.640625 C 31.476562 -41.203125 29.441406 -39.035156 27.859375 -36.140625 L 27.859375 -22.078125 C 28.828125 -19.273438 30.554688 -17.039062 33.046875 -15.375 C 35.546875 -13.707031 38.460938 -12.875 41.796875 -12.875 Z M 41.796875 -12.875 "/></g></g><g style="fill:#000000;fill-opacity:1;"><g transform="translate(1086.676876, 369.937713)"><path style="stroke:none" d="M 49.15625 -60.328125 C 54.5 -60.328125 59.269531 -59.054688 63.46875 -56.515625 C 67.675781 -53.972656 70.984375 -50.332031 73.390625 -45.59375 C 75.804688 -40.863281 77.015625 -35.300781 77.015625 -28.90625 C 77.015625 -22.601562 75.675781 -17.148438 73 -12.546875 C 70.332031 -7.953125 66.609375 -4.445312 61.828125 -2.03125 C 57.054688 0.375 51.601562 1.578125 45.46875 1.578125 C 42.144531 1.578125 38.882812 0.988281 35.6875 -0.1875 C 32.488281 -1.375 29.835938 -3.0625 27.734375 -5.25 L 27.734375 27.59375 L 9.46875 27.59375 L 9.46875 -58.75 L 25.234375 -58.75 L 26.8125 -51.90625 C 33.820312 -57.519531 41.269531 -60.328125 49.15625 -60.328125 Z M 41.796875 -12.875 C 46.347656 -12.875 50.242188 -14.363281 53.484375 -17.34375 C 56.722656 -20.320312 58.34375 -24.09375 58.34375 -28.65625 C 58.34375 -33.382812 56.875 -37.257812 53.9375 -40.28125 C 51.007812 -43.300781 47.398438 -44.8125 43.109375 -44.8125 C 39.515625 -44.8125 36.46875 -44.085938 33.96875 -42.640625 C 31.476562 -41.203125 29.441406 -39.035156 27.859375 -36.140625 L 27.859375 -22.078125 C 28.828125 -19.273438 30.554688 -17.039062 33.046875 -15.375 C 35.546875 -13.707031 38.460938 -12.875 41.796875 -12.875 Z M 41.796875 -12.875 "/></g></g><g style="fill:#000000;fill-opacity:1;"><g transform="translate(1168.683246, 369.937713)"><path style="stroke:none" d="M 27.859375 -57.4375 L 27.859375 0 L 9.46875 0 L 9.46875 -57.4375 Z M 9.078125 -77.8125 C 9.078125 -80.4375 10.101562 -82.644531 12.15625 -84.4375 C 14.21875 -86.238281 16.5625 -87.140625 19.1875 -87.140625 C 21.726562 -87.140625 24.003906 -86.238281 26.015625 -84.4375 C 28.035156 -82.644531 29.046875 -80.4375 29.046875 -77.8125 C 29.046875 -75.175781 28.035156 -72.984375 26.015625 -71.234375 C 24.003906 -69.484375 21.726562 -68.609375 19.1875 -68.609375 C 16.5625 -68.609375 14.21875 -69.484375 12.15625 -71.234375 C 10.101562 -72.984375 9.078125 -75.175781 9.078125 -77.8125 Z M 9.078125 -77.8125 "/></g></g><g style="fill:#000000;fill-opacity:1;"><g transform="translate(1206.006628, 369.937713)"><path style="stroke:none" d="M 49.421875 -60.1875 C 54.847656 -60.1875 59.378906 -58.566406 63.015625 -55.328125 C 66.648438 -52.085938 68.515625 -47.96875 68.609375 -42.96875 L 68.609375 0 L 50.203125 0 L 50.203125 -36.140625 C 49.941406 -41.742188 47.140625 -44.546875 41.796875 -44.546875 C 37.585938 -44.546875 34.210938 -42.570312 31.671875 -38.625 C 29.128906 -34.6875 27.859375 -29.609375 27.859375 -23.390625 L 27.859375 0 L 9.46875 0 L 9.46875 -57.4375 L 26.15625 -57.4375 L 27.46875 -48.234375 C 29.570312 -52.003906 32.484375 -54.9375 36.203125 -57.03125 C 39.929688 -59.132812 44.335938 -60.1875 49.421875 -60.1875 Z M 49.421875 -60.1875 "/></g></g><g style="fill:#000000;fill-opacity:1;"><g transform="translate(1284.070402, 369.937713)"><path style="stroke:none" d="M 38.109375 -14.0625 C 41.785156 -14.0625 45.597656 -15.332031 49.546875 -17.875 L 57.6875 -4.203125 C 54.539062 -2.453125 51.210938 -1.050781 47.703125 0 C 44.203125 1.050781 40.875 1.578125 37.71875 1.578125 C 30.882812 1.578125 24.988281 0.285156 20.03125 -2.296875 C 15.082031 -4.878906 11.335938 -8.515625 8.796875 -13.203125 C 6.265625 -17.890625 5 -23.257812 5 -29.3125 C 5 -34.914062 6.460938 -40.082031 9.390625 -44.8125 C 12.328125 -49.539062 16.335938 -53.285156 21.421875 -56.046875 C 26.503906 -58.804688 32.066406 -60.1875 38.109375 -60.1875 C 46.347656 -60.1875 53.117188 -57.773438 58.421875 -52.953125 C 63.722656 -48.140625 67.160156 -41.265625 68.734375 -32.328125 L 26.671875 -18.921875 C 29.484375 -15.679688 33.296875 -14.0625 38.109375 -14.0625 Z M 36.671875 -45.859375 C 32.546875 -45.859375 29.253906 -44.457031 26.796875 -41.65625 C 24.347656 -38.851562 23.125 -35.085938 23.125 -30.359375 L 23.125 -29.171875 L 48.359375 -37.71875 C 46.523438 -43.144531 42.628906 -45.859375 36.671875 -45.859375 Z M 36.671875 -45.859375 "/></g></g><g style="fill:#000000;fill-opacity:1;"><g transform="translate(460.589814, 508.889844)"><path style="stroke:none" d="M 64.140625 -73.328125 C 55.722656 -77.972656 48.40625 -80.296875 42.1875 -80.296875 C 37.976562 -80.296875 34.710938 -79.460938 32.390625 -77.796875 C 30.066406 -76.140625 28.90625 -73.644531 28.90625 -70.3125 C 28.90625 -67.238281 30.59375 -64.539062 33.96875 -62.21875 C 37.34375 -59.90625 41.832031 -57.695312 47.4375 -55.59375 C 52 -53.925781 55.898438 -52.019531 59.140625 -49.875 C 62.378906 -47.726562 65.070312 -44.769531 67.21875 -41 C 69.363281 -37.238281 70.4375 -32.460938 70.4375 -26.671875 C 70.4375 -21.679688 69.144531 -17.0625 66.5625 -12.8125 C 63.976562 -8.5625 60.1875 -5.1875 55.1875 -2.6875 C 50.195312 -0.195312 44.242188 1.046875 37.328125 1.046875 C 31.546875 1.046875 25.804688 0.191406 20.109375 -1.515625 C 14.410156 -3.222656 9.109375 -5.828125 4.203125 -9.328125 L 12.609375 -24.1875 C 15.941406 -21.726562 19.753906 -19.707031 24.046875 -18.125 C 28.335938 -16.550781 32.191406 -15.765625 35.609375 -15.765625 C 39.640625 -15.765625 43.144531 -16.617188 46.125 -18.328125 C 49.101562 -20.035156 50.59375 -22.816406 50.59375 -26.671875 C 50.59375 -31.671875 45.90625 -36.007812 36.53125 -39.6875 C 31.007812 -41.875 26.410156 -43.972656 22.734375 -45.984375 C 19.054688 -48.003906 15.878906 -50.898438 13.203125 -54.671875 C 10.535156 -58.441406 9.203125 -63.171875 9.203125 -68.859375 C 9.203125 -77.179688 11.9375 -83.882812 17.40625 -88.96875 C 22.882812 -94.050781 30.179688 -96.8125 39.296875 -97.25 C 46.484375 -97.25 52.484375 -96.4375 57.296875 -94.8125 C 62.117188 -93.195312 66.804688 -90.898438 71.359375 -87.921875 Z M 64.140625 -73.328125 "/></g></g><g style="fill:#000000;fill-opacity:1;"><g transform="translate(537.207933, 508.889844)"><path style="stroke:none" d="M 49.15625 -60.328125 C 54.5 -60.328125 59.269531 -59.054688 63.46875 -56.515625 C 67.675781 -53.972656 70.984375 -50.332031 73.390625 -45.59375 C 75.804688 -40.863281 77.015625 -35.300781 77.015625 -28.90625 C 77.015625 -22.601562 75.675781 -17.148438 73 -12.546875 C 70.332031 -7.953125 66.609375 -4.445312 61.828125 -2.03125 C 57.054688 0.375 51.601562 1.578125 45.46875 1.578125 C 42.144531 1.578125 38.882812 0.988281 35.6875 -0.1875 C 32.488281 -1.375 29.835938 -3.0625 27.734375 -5.25 L 27.734375 27.59375 L 9.46875 27.59375 L 9.46875 -58.75 L 25.234375 -58.75 L 26.8125 -51.90625 C 33.820312 -57.519531 41.269531 -60.328125 49.15625 -60.328125 Z M 41.796875 -12.875 C 46.347656 -12.875 50.242188 -14.363281 53.484375 -17.34375 C 56.722656 -20.320312 58.34375 -24.09375 58.34375 -28.65625 C 58.34375 -33.382812 56.875 -37.257812 53.9375 -40.28125 C 51.007812 -43.300781 47.398438 -44.8125 43.109375 -44.8125 C 39.515625 -44.8125 36.46875 -44.085938 33.96875 -42.640625 C 31.476562 -41.203125 29.441406 -39.035156 27.859375 -36.140625 L 27.859375 -22.078125 C 28.828125 -19.273438 30.554688 -17.039062 33.046875 -15.375 C 35.546875 -13.707031 38.460938 -12.875 41.796875 -12.875 Z M 41.796875 -12.875 "/></g></g><g style="fill:#000000;fill-opacity:1;"><g transform="translate(619.214303, 508.889844)"><path style="stroke:none" d="M 5 -29.4375 C 5 -35.3125 6.378906 -40.566406 9.140625 -45.203125 C 11.898438 -49.847656 15.796875 -53.503906 20.828125 -56.171875 C 25.867188 -58.847656 31.585938 -60.1875 37.984375 -60.1875 C 44.378906 -60.1875 50.003906 -58.847656 54.859375 -56.171875 C 59.722656 -53.503906 63.46875 -49.847656 66.09375 -45.203125 C 68.726562 -40.566406 70.046875 -35.3125 70.046875 -29.4375 C 70.046875 -23.570312 68.726562 -18.269531 66.09375 -13.53125 C 63.46875 -8.800781 59.722656 -5.097656 54.859375 -2.421875 C 50.003906 0.242188 44.289062 1.578125 37.71875 1.578125 C 31.320312 1.578125 25.648438 0.332031 20.703125 -2.15625 C 15.753906 -4.65625 11.898438 -8.226562 9.140625 -12.875 C 6.378906 -17.519531 5 -23.039062 5 -29.4375 Z M 23.53125 -29.3125 C 23.53125 -24.75 24.84375 -20.957031 27.46875 -17.9375 C 30.09375 -14.914062 33.421875 -13.40625 37.453125 -13.40625 C 41.660156 -13.40625 45.054688 -14.894531 47.640625 -17.875 C 50.222656 -20.851562 51.515625 -24.664062 51.515625 -29.3125 C 51.515625 -33.945312 50.222656 -37.753906 47.640625 -40.734375 C 45.054688 -43.710938 41.660156 -45.203125 37.453125 -45.203125 C 33.421875 -45.203125 30.09375 -43.691406 27.46875 -40.671875 C 24.84375 -37.648438 23.53125 -33.863281 23.53125 -29.3125 Z M 23.53125 -29.3125 "/></g></g><g style="fill:#000000;fill-opacity:1;"><g transform="translate(694.255388, 508.889844)"><path style="stroke:none" d="M 49.421875 -60.1875 C 54.847656 -60.1875 59.378906 -58.566406 63.015625 -55.328125 C 66.648438 -52.085938 68.515625 -47.96875 68.609375 -42.96875 L 68.609375 0 L 50.203125 0 L 50.203125 -36.140625 C 49.941406 -41.742188 47.140625 -44.546875 41.796875 -44.546875 C 37.585938 -44.546875 34.210938 -42.570312 31.671875 -38.625 C 29.128906 -34.6875 27.859375 -29.609375 27.859375 -23.390625 L 27.859375 0 L 9.46875 0 L 9.46875 -57.4375 L 26.15625 -57.4375 L 27.46875 -48.234375 C 29.570312 -52.003906 32.484375 -54.9375 36.203125 -57.03125 C 39.929688 -59.132812 44.335938 -60.1875 49.421875 -60.1875 Z M 49.421875 -60.1875 "/></g></g><g style="fill:#000000;fill-opacity:1;"><g transform="translate(772.319147, 508.889844)"><path style="stroke:none" d="M 73.734375 -57.4375 L 73.734375 0 C 73.734375 5.425781 72.175781 10.351562 69.0625 14.78125 C 65.945312 19.207031 61.738281 22.664062 56.4375 25.15625 C 51.144531 27.65625 45.382812 28.90625 39.15625 28.90625 C 34.425781 28.90625 30.285156 28.335938 26.734375 27.203125 C 23.191406 26.066406 20.347656 24.796875 18.203125 23.390625 C 16.054688 21.992188 13.492188 20.066406 10.515625 17.609375 L 21.296875 5 C 23.921875 7.445312 26.523438 9.367188 29.109375 10.765625 C 31.691406 12.171875 34.957031 12.875 38.90625 12.875 C 43.539062 12.875 47.4375 11.710938 50.59375 9.390625 C 53.75 7.066406 55.328125 3.847656 55.328125 -0.265625 L 55.328125 -8.40625 C 53.578125 -5.425781 50.882812 -3.015625 47.25 -1.171875 C 43.613281 0.660156 39.164062 1.578125 33.90625 1.578125 C 28.738281 1.578125 23.941406 0.242188 19.515625 -2.421875 C 15.085938 -5.097656 11.5625 -8.78125 8.9375 -13.46875 C 6.3125 -18.15625 5 -23.347656 5 -29.046875 C 5 -34.828125 6.378906 -40.125 9.140625 -44.9375 C 11.898438 -49.757812 15.535156 -53.53125 20.046875 -56.25 C 24.554688 -58.96875 29.304688 -60.328125 34.296875 -60.328125 C 39.023438 -60.328125 43.226562 -59.644531 46.90625 -58.28125 C 50.59375 -56.925781 53.398438 -55.15625 55.328125 -52.96875 L 56.78125 -57.4375 Z M 39.421875 -13.40625 C 46.785156 -13.40625 52.085938 -16.296875 55.328125 -22.078125 L 55.328125 -36.140625 C 54.097656 -38.941406 52.0625 -41.175781 49.21875 -42.84375 C 46.375 -44.507812 43.109375 -45.34375 39.421875 -45.34375 C 34.953125 -45.34375 31.1875 -43.851562 28.125 -40.875 C 25.0625 -37.894531 23.53125 -34.125 23.53125 -29.5625 C 23.53125 -25.007812 25.0625 -21.175781 28.125 -18.0625 C 31.1875 -14.957031 34.953125 -13.40625 39.421875 -13.40625 Z M 39.421875 -13.40625 "/></g></g><g style="fill:#000000;fill-opacity:1;"><g transform="translate(855.50829, 508.889844)"><path style="stroke:none" d="M 38.109375 -14.0625 C 41.785156 -14.0625 45.597656 -15.332031 49.546875 -17.875 L 57.6875 -4.203125 C 54.539062 -2.453125 51.210938 -1.050781 47.703125 0 C 44.203125 1.050781 40.875 1.578125 37.71875 1.578125 C 30.882812 1.578125 24.988281 0.285156 20.03125 -2.296875 C 15.082031 -4.878906 11.335938 -8.515625 8.796875 -13.203125 C 6.265625 -17.890625 5 -23.257812 5 -29.3125 C 5 -34.914062 6.460938 -40.082031 9.390625 -44.8125 C 12.328125 -49.539062 16.335938 -53.285156 21.421875 -56.046875 C 26.503906 -58.804688 32.066406 -60.1875 38.109375 -60.1875 C 46.347656 -60.1875 53.117188 -57.773438 58.421875 -52.953125 C 63.722656 -48.140625 67.160156 -41.265625 68.734375 -32.328125 L 26.671875 -18.921875 C 29.484375 -15.679688 33.296875 -14.0625 38.109375 -14.0625 Z M 36.671875 -45.859375 C 32.546875 -45.859375 29.253906 -44.457031 26.796875 -41.65625 C 24.347656 -38.851562 23.125 -35.085938 23.125 -30.359375 L 23.125 -29.171875 L 48.359375 -37.71875 C 46.523438 -43.144531 42.628906 -45.859375 36.671875 -45.859375 Z M 36.671875 -45.859375 "/></g></g><g style="fill:#000000;fill-opacity:1;"><g transform="translate(928.183815, 508.889844)"><path style="stroke:none" d=""/></g></g><g style="fill:#000000;fill-opacity:1;"><g transform="translate(970.895446, 508.889844)"><path style="stroke:none" d="M 90.9375 -9.71875 C 89.445312 -8.144531 86.796875 -6.503906 82.984375 -4.796875 C 79.179688 -3.085938 74.976562 -1.6875 70.375 -0.59375 C 65.78125 0.5 61.597656 1.046875 57.828125 1.046875 C 47.578125 1.046875 38.570312 -0.941406 30.8125 -4.921875 C 23.0625 -8.910156 17.082031 -14.429688 12.875 -21.484375 C 8.675781 -28.535156 6.578125 -36.578125 6.578125 -45.609375 C 6.578125 -56.910156 8.804688 -66.476562 13.265625 -74.3125 C 17.734375 -82.15625 23.734375 -88.023438 31.265625 -91.921875 C 38.804688 -95.828125 47.132812 -97.78125 56.25 -97.78125 C 62.113281 -97.78125 67.628906 -97.117188 72.796875 -95.796875 C 77.972656 -94.484375 82.53125 -92.78125 86.46875 -90.6875 L 80.296875 -72.9375 C 77.753906 -74.34375 74.269531 -75.632812 69.84375 -76.8125 C 65.425781 -78 61.726562 -78.59375 58.75 -78.59375 C 48.226562 -78.59375 40.1875 -75.960938 34.625 -70.703125 C 29.0625 -65.441406 26.28125 -57.644531 26.28125 -47.3125 C 26.28125 -41.351562 27.640625 -36.160156 30.359375 -31.734375 C 33.078125 -27.316406 36.863281 -23.921875 41.71875 -21.546875 C 46.582031 -19.179688 52.125 -18 58.34375 -18 C 64.300781 -18 68.726562 -18.832031 71.625 -20.5 L 71.625 -32.203125 L 54.9375 -32.203125 L 54.9375 -50.59375 L 90.9375 -50.59375 Z M 90.9375 -9.71875 "/></g></g><g style="fill:#000000;fill-opacity:1;"><g transform="translate(1071.037862, 508.889844)"><path style="stroke:none" d="M 67.28125 -57.4375 L 67.28125 0 L 50.59375 0 L 49.28125 -9.203125 C 47.269531 -5.523438 44.445312 -2.609375 40.8125 -0.453125 C 37.175781 1.691406 32.90625 2.765625 28 2.765625 C 22.738281 2.765625 18.351562 1.144531 14.84375 -2.09375 C 11.34375 -5.34375 9.550781 -9.460938 9.46875 -14.453125 L 9.46875 -57.4375 L 27.859375 -57.4375 L 27.859375 -21.296875 C 28.117188 -15.679688 30.703125 -12.875 35.609375 -12.875 C 39.640625 -12.875 42.859375 -14.84375 45.265625 -18.78125 C 47.679688 -22.726562 48.890625 -27.8125 48.890625 -34.03125 L 48.890625 -57.4375 Z M 67.28125 -57.4375 "/></g></g><g style="fill:#000000;fill-opacity:1;"><g transform="translate(1147.787378, 508.889844)"><path style="stroke:none" d="M 27.859375 -57.4375 L 27.859375 0 L 9.46875 0 L 9.46875 -57.4375 Z M 9.078125 -77.8125 C 9.078125 -80.4375 10.101562 -82.644531 12.15625 -84.4375 C 14.21875 -86.238281 16.5625 -87.140625 19.1875 -87.140625 C 21.726562 -87.140625 24.003906 -86.238281 26.015625 -84.4375 C 28.035156 -82.644531 29.046875 -80.4375 29.046875 -77.8125 C 29.046875 -75.175781 28.035156 -72.984375 26.015625 -71.234375 C 24.003906 -69.484375 21.726562 -68.609375 19.1875 -68.609375 C 16.5625 -68.609375 14.21875 -69.484375 12.15625 -71.234375 C 10.101562 -72.984375 9.078125 -75.175781 9.078125 -77.8125 Z M 9.078125 -77.8125 "/></g></g><g style="fill:#000000;fill-opacity:1;"><g transform="translate(1185.110819, 508.889844)"><path style="stroke:none" d="M 72.546875 -103.6875 L 72.546875 0 L 54.140625 0 L 54.140625 -6.046875 C 47.484375 -0.960938 40.390625 1.578125 32.859375 1.578125 C 27.515625 1.578125 22.738281 0.304688 18.53125 -2.234375 C 14.320312 -4.773438 11.015625 -8.410156 8.609375 -13.140625 C 6.203125 -17.867188 5 -23.429688 5 -29.828125 C 5 -36.140625 6.289062 -41.59375 8.875 -46.1875 C 11.457031 -50.789062 15.023438 -54.296875 19.578125 -56.703125 C 24.140625 -59.117188 29.351562 -60.328125 35.21875 -60.328125 C 38.988281 -60.328125 42.535156 -59.734375 45.859375 -58.546875 C 49.191406 -57.367188 52 -55.640625 54.28125 -53.359375 L 54.28125 -103.6875 Z M 38.90625 -13.9375 C 42.582031 -13.9375 45.644531 -14.65625 48.09375 -16.09375 C 50.550781 -17.539062 52.566406 -19.710938 54.140625 -22.609375 L 54.140625 -36.671875 C 53.085938 -39.472656 51.203125 -41.703125 48.484375 -43.359375 C 45.773438 -45.023438 42.582031 -45.859375 38.90625 -45.859375 C 34.78125 -45.859375 31.207031 -44.367188 28.1875 -41.390625 C 25.164062 -38.410156 23.65625 -34.644531 23.65625 -30.09375 C 23.65625 -27.113281 24.351562 -24.375 25.75 -21.875 C 27.15625 -19.382812 29.019531 -17.4375 31.34375 -16.03125 C 33.664062 -14.632812 36.1875 -13.9375 38.90625 -13.9375 Z M 38.90625 -13.9375 "/></g></g><g style="fill:#000000;fill-opacity:1;"><g transform="translate(1267.117189, 508.889844)"><path style="stroke:none" d="M 38.109375 -14.0625 C 41.785156 -14.0625 45.597656 -15.332031 49.546875 -17.875 L 57.6875 -4.203125 C 54.539062 -2.453125 51.210938 -1.050781 47.703125 0 C 44.203125 1.050781 40.875 1.578125 37.71875 1.578125 C 30.882812 1.578125 24.988281 0.285156 20.03125 -2.296875 C 15.082031 -4.878906 11.335938 -8.515625 8.796875 -13.203125 C 6.265625 -17.890625 5 -23.257812 5 -29.3125 C 5 -34.914062 6.460938 -40.082031 9.390625 -44.8125 C 12.328125 -49.539062 16.335938 -53.285156 21.421875 -56.046875 C 26.503906 -58.804688 32.066406 -60.1875 38.109375 -60.1875 C 46.347656 -60.1875 53.117188 -57.773438 58.421875 -52.953125 C 63.722656 -48.140625 67.160156 -41.265625 68.734375 -32.328125 L 26.671875 -18.921875 C 29.484375 -15.679688 33.296875 -14.0625 38.109375 -14.0625 Z M 36.671875 -45.859375 C 32.546875 -45.859375 29.253906 -44.457031 26.796875 -41.65625 C 24.347656 -38.851562 23.125 -35.085938 23.125 -30.359375 L 23.125 -29.171875 L 48.359375 -37.71875 C 46.523438 -43.144531 42.628906 -45.859375 36.671875 -45.859375 Z M 36.671875 -45.859375 "/></g></g><g clip-rule="nonzero" clip-path="url(#1b675d7ca0)"><path style=" stroke:none;fill-rule:nonzero;fill:#d19840;fill-opacity:1;" d="M 129.019531 583.050781 C 122.167969 580.648438 115.691406 577.800781 109.605469 574.5 C 109.371094 454.183594 109.566406 333.839844 109.644531 213.476562 C 115.722656 204.789062 122.191406 196.878906 129.039062 189.933594 C 129.003906 320.988281 128.875 452.03125 129.019531 583.050781 Z M 129.019531 583.050781 "/></g><path style=" stroke:none;fill-rule:nonzero;fill:#d19840;fill-opacity:1;" d="M 68.679688 455.089844 C 68.03125 477.820312 64.265625 499.558594 60.101562 521.28125 C 52.160156 504.121094 47.164062 483.707031 45.375 459.859375 C 43.585938 435.699219 45.167969 406.894531 49.867188 376.820312 C 56.65625 406.167969 69.695312 419.460938 68.679688 455.089844 Z M 68.679688 455.089844 "/><path style=" stroke:none;fill-rule:nonzero;fill:#d19840;fill-opacity:1;" d="M 94.351562 457.054688 C 93.359375 489.921875 86.273438 520.777344 80.921875 552.5 C 75.484375 546.703125 70.621094 540.253906 66.355469 533.136719 C 72.050781 506.402344 77.984375 480 78.691406 451.976562 C 79.675781 412.773438 64 405.050781 56.578125 371.886719 C 55.351562 366.398438 54.535156 360.3125 54.027344 353.839844 C 58.972656 329.761719 65.820312 305.425781 74.449219 282.488281 C 73.46875 312.027344 71.246094 345.835938 75.863281 372.003906 C 81.644531 404.800781 95.453125 420.304688 94.351562 457.054688 Z M 94.351562 457.054688 "/><g clip-rule="nonzero" clip-path="url(#0c398a2da2)"><path style=" stroke:none;fill-rule:nonzero;fill:#d19840;fill-opacity:1;" d="M 102.085938 570.0625 C 96.632812 566.570312 91.539062 562.65625 86.8125 558.324219 C 91.015625 526.457031 96.988281 495.386719 98.046875 462.582031 C 99.175781 427.460938 87.625 405.144531 83.34375 372.359375 C 79.21875 340.796875 78.511719 306.082031 79.039062 270.828125 C 85.582031 254.957031 93.003906 239.929688 101.265625 226.339844 C 100.769531 275.457031 100.417969 324.664062 101.953125 373.398438 C 104.046875 439.859375 102.582031 504.285156 102.085938 570.0625 Z M 102.085938 570.0625 "/></g><g clip-rule="nonzero" clip-path="url(#ca77cb61e4)"><path style=" stroke:none;fill-rule:nonzero;fill:#d19840;fill-opacity:1;" d="M 264.773438 584.984375 C 258.550781 586.558594 252.078125 587.890625 245.367188 588.992188 C 246.207031 517.9375 250.25 443.085938 245.214844 373.410156 C 242.039062 329.46875 223.816406 301.511719 218.230469 259.976562 C 214.277344 230.574219 224.378906 202.207031 233.761719 174.554688 C 239.53125 178.148438 245.207031 182.371094 250.769531 187.148438 C 243.527344 211.679688 237.175781 236.710938 240.382812 261.964844 C 245.515625 302.382812 261.78125 330.921875 264.585938 373.410156 C 269.125 442.121094 265.632812 515.023438 264.773438 584.984375 Z M 264.773438 584.984375 "/></g><g clip-rule="nonzero" clip-path="url(#1cfcfe78b2)"><path style=" stroke:none;fill-rule:nonzero;fill:#d19840;fill-opacity:1;" d="M 165.375 529.574219 C 162.558594 552.691406 158.804688 569.089844 157.085938 590.097656 C 150.019531 588.933594 143.246094 587.414062 136.78125 585.53125 C 136.730469 451.351562 136.773438 317.054688 136.78125 182.644531 C 138.125 181.476562 139.480469 180.347656 140.847656 179.253906 C 145.890625 175.238281 150.949219 171.914062 156.011719 169.246094 C 155.507812 237.984375 153.933594 307.417969 156.628906 375.765625 C 158.527344 423.839844 171.183594 481.796875 165.375 529.574219 Z M 165.375 529.574219 "/></g><g clip-rule="nonzero" clip-path="url(#14a299fa12)"><path style=" stroke:none;fill-rule:nonzero;fill:#d19840;fill-opacity:1;" d="M 195.515625 544.667969 C 192.046875 568.472656 186.421875 572.007812 184.203125 592.800781 C 177.625 592.535156 171.246094 592.019531 165.078125 591.253906 C 167.390625 571.820312 172.496094 562.144531 175.125 539.589844 C 181.070312 488.570312 166.773438 427.53125 164.484375 376.339844 C 161.367188 306.738281 163.234375 235.730469 163.761719 165.65625 C 170.226562 163.078125 176.691406 161.527344 183.121094 160.914062 C 182.523438 232.699219 180.464844 304.835938 183.878906 376.46875 C 186.3125 427.589844 202.890625 494.039062 195.515625 544.667969 Z M 195.515625 544.667969 "/></g><g clip-rule="nonzero" clip-path="url(#1dc4016ac3)"><path style=" stroke:none;fill-rule:nonzero;fill:#d19840;fill-opacity:1;" d="M 210.472656 592.625 C 204.15625 592.945312 197.992188 593.070312 191.980469 593 C 194.144531 572.128906 199.300781 560.179688 201.714844 537.03125 C 207.003906 486.359375 194.128906 426.921875 191.566406 376.21875 C 187.855469 302.910156 188.777344 233.117188 190.40625 160.613281 C 195.535156 160.679688 200.636719 161.324219 205.695312 162.507812 C 199.179688 194.84375 190.265625 227.664062 193.265625 260.882812 C 196.816406 300.214844 208.382812 333.875 210.535156 374.222656 C 214.515625 448.859375 211.101562 519.199219 210.472656 592.625 Z M 210.472656 592.625 "/></g><g clip-rule="nonzero" clip-path="url(#4af4a76e96)"><path style=" stroke:none;fill-rule:nonzero;fill:#d19840;fill-opacity:1;" d="M 237.621094 590.148438 C 231.515625 590.976562 225.230469 591.625 218.777344 592.101562 C 218.574219 592.117188 218.375 592.132812 218.175781 592.144531 C 218.644531 519.082031 221.660156 446.789062 218.121094 373.480469 C 216.082031 331.214844 200.699219 300.679688 196.15625 260.261719 C 192.484375 227.5625 203.292969 195.453125 211.574219 164.125 C 216.808594 165.777344 221.988281 167.988281 227.105469 170.710938 C 217.210938 199.402344 205.757812 228.792969 209.941406 259.585938 C 215.621094 301.375 234.242188 329.140625 237.476562 373.410156 C 242.59375 443.414062 238.4375 518.773438 237.621094 590.148438 Z M 237.621094 590.148438 "/></g><g clip-rule="nonzero" clip-path="url(#0c0513a564)"><path style=" stroke:none;fill-rule:nonzero;fill:#d19840;fill-opacity:1;" d="M 291.972656 575.851562 C 285.828125 578.515625 279.339844 580.847656 272.527344 582.859375 C 273.390625 513.507812 276.621094 441.582031 272.324219 373.410156 C 269.683594 331.554688 254.269531 302.773438 249.351562 262.84375 C 246.480469 239.535156 251.414062 216.261719 257.617188 193.355469 C 263.46875 198.945312 269.175781 205.128906 274.71875 211.820312 C 271.335938 228.871094 269.269531 246.191406 270.640625 264.210938 C 273.550781 302.382812 289.335938 333.484375 291.691406 373.410156 C 295.59375 439.484375 292.890625 508.636719 291.972656 575.851562 Z M 291.972656 575.851562 "/></g><g clip-rule="nonzero" clip-path="url(#8715a3ec8a)"><path style=" stroke:none;fill-rule:nonzero;fill:#d19840;fill-opacity:1;" d="M 299.738281 572.207031 C 300.632812 505.503906 302.976562 437.09375 298.855469 371.523438 C 296.433594 332.949219 282.117188 301.535156 279.316406 264.425781 C 278.183594 249.441406 279.339844 234.871094 281.617188 220.515625 C 290.269531 231.890625 298.464844 244.457031 306.082031 257.824219 C 306.097656 259.46875 306.128906 261.117188 306.183594 262.765625 C 307.121094 292.925781 311.417969 323.289062 312.785156 353.578125 C 315.925781 423.085938 317.878906 491.402344 318.53125 560.585938 C 312.757812 564.933594 306.480469 568.800781 299.738281 572.207031 Z M 299.738281 572.207031 "/></g><g clip-rule="nonzero" clip-path="url(#40bf9ad145)"><path style=" stroke:none;fill-rule:nonzero;fill:#d19840;fill-opacity:1;" d="M 346.246094 529.785156 C 340.667969 539.199219 333.847656 547.425781 325.878906 554.554688 C 324.378906 484.21875 320.546875 415.300781 317.730469 344.375 C 316.863281 322.582031 316.996094 301.074219 317.703125 279.699219 C 322.949219 290.300781 327.839844 301.238281 332.328125 312.347656 C 331.964844 316.605469 331.78125 321.40625 331.832031 327 C 332.34375 379.472656 344.953125 430.800781 345.90625 483.742188 C 346.183594 499.070312 346.261719 514.421875 346.246094 529.785156 Z M 346.246094 529.785156 "/></g><path style=" stroke:none;fill-rule:nonzero;fill:#d19840;fill-opacity:1;" d="M 363.972656 461.113281 C 363.410156 481.390625 359.980469 498.957031 353.953125 514.066406 C 353.914062 503.949219 353.824219 493.84375 353.644531 483.742188 C 352.738281 432.003906 340.429688 381.8125 339.292969 330.621094 C 355.765625 376.550781 365.070312 423.808594 363.972656 461.113281 Z M 363.972656 461.113281 "/><g clip-rule="nonzero" clip-path="url(#021e25e09c)"><g clip-rule="nonzero" clip-path="url(#7e164e4847)"><path style=" stroke:none;fill-rule:nonzero;fill:#f58e26;fill-opacity:1;" d="M 72.339844 245.152344 L 318.691406 245.152344 L 318.691406 323.011719 L 72.339844 323.011719 Z M 72.339844 245.152344 "/></g></g><g clip-rule="nonzero" clip-path="url(#9368384ff7)"><g clip-rule="nonzero" clip-path="url(#1caab5c907)"><path style=" stroke:none;fill-rule:nonzero;fill:#48acbb;fill-opacity:1;" d="M 246.523438 199.816406 L 291.863281 199.816406 L 291.863281 245.152344 L 246.523438 245.152344 Z M 246.523438 199.816406 "/></g></g><g clip-rule="nonzero" clip-path="url(#5669ee7eef)"><g clip-rule="nonzero" clip-path="url(#05aa5d2a58)"><path style=" stroke:none;fill-rule:nonzero;fill:#48acbb;fill-opacity:1;" d="M 187.945312 126.535156 L 261.222656 126.535156 L 261.222656 199.816406 L 187.945312 199.816406 Z M 187.945312 126.535156 "/></g></g><g clip-rule="nonzero" clip-path="url(#14f632db2f)"><g clip-rule="nonzero" clip-path="url(#a8061a17d6)"><path style=" stroke:none;fill-rule:nonzero;fill:#48acbb;fill-opacity:1;" d="M 269.390625 79.753906 L 367.941406 79.753906 L 367.941406 178.304688 L 269.390625 178.304688 Z M 269.390625 79.753906 "/></g></g><g clip-rule="nonzero" clip-path="url(#bbf5de7ea5)"><path style=" stroke:none;fill-rule:evenodd;fill:#f58e26;fill-opacity:1;" d="M 321.210938 79.753906 C 307.417969 79.753906 294.191406 85.234375 284.441406 94.984375 C 274.691406 104.738281 269.210938 117.964844 269.210938 131.753906 C 269.210938 145.546875 274.691406 158.769531 284.441406 168.523438 C 294.191406 178.273438 307.417969 183.753906 321.210938 183.753906 C 329.867188 183.707031 338.378906 181.5 345.964844 177.332031 L 371.496094 203.285156 C 376.003906 207.871094 383.320312 207.929688 387.90625 203.421875 C 392.488281 198.914062 392.546875 191.597656 388.039062 187.011719 L 363.390625 161.953125 C 369.734375 153.15625 373.164062 142.597656 373.210938 131.753906 C 373.210938 117.964844 367.730469 104.738281 357.980469 94.984375 C 348.226562 85.234375 335 79.753906 321.210938 79.753906 Z M 321.804688 94.875 C 331.019531 94.875 339.855469 98.707031 346.371094 105.527344 C 352.886719 112.351562 356.550781 121.601562 356.550781 131.25 C 356.527344 141.703125 352.207031 151.644531 344.695312 158.53125 C 344.527344 158.675781 344.359375 158.828125 344.199219 158.988281 C 344.109375 159.078125 344.023438 159.167969 343.933594 159.261719 C 337.710938 164.65625 329.886719 167.613281 321.804688 167.621094 C 312.589844 167.621094 303.753906 163.789062 297.238281 156.96875 C 290.71875 150.148438 287.058594 140.894531 287.058594 131.25 C 287.058594 121.601562 290.71875 112.351562 297.238281 105.527344 C 303.753906 98.707031 312.589844 94.875 321.804688 94.875 Z M 321.804688 94.875 "/></g></g></svg>