<svg xmlns="http://www.w3.org/2000/svg" xmlns:xlink="http://www.w3.org/1999/xlink" width="480" zoomAndPan="magnify" viewBox="0 0 360 359.999987" height="480" preserveAspectRatio="xMidYMid meet" version="1.2"><defs><clipPath id="cae00a7064"><path d="M 111 151.179688 L 123 151.179688 L 123 312.75 L 111 312.75 Z M 111 151.179688 "/></clipPath><clipPath id="c840bcb5fd"><path d="M 94 151.179688 L 108 151.179688 L 108 312.75 L 94 312.75 Z M 94 151.179688 "/></clipPath><clipPath id="f63108b608"><path d="M 173 151.179688 L 202 151.179688 L 202 312.75 L 173 312.75 Z M 173 151.179688 "/></clipPath><clipPath id="286f96f8f8"><path d="M 127 151.179688 L 145 151.179688 L 145 312.75 L 127 312.75 Z M 127 151.179688 "/></clipPath><clipPath id="c81357f29c"><path d="M 141 151.179688 L 162 151.179688 L 162 312.75 L 141 312.75 Z M 141 151.179688 "/></clipPath><clipPath id="46a035f794"><path d="M 156 151.179688 L 171 151.179688 L 171 312.75 L 156 312.75 Z M 156 151.179688 "/></clipPath><clipPath id="b22307a798"><path d="M 160 151.179688 L 187 151.179688 L 187 312.75 L 160 312.75 Z M 160 151.179688 "/></clipPath><clipPath id="0656f00f1f"><path d="M 190 151.179688 L 217 151.179688 L 217 312.75 L 190 312.75 Z M 190 151.179688 "/></clipPath><clipPath id="19b22a3679"><path d="M 208 151.179688 L 231 151.179688 L 231 312.75 L 208 312.75 Z M 208 151.179688 "/></clipPath><clipPath id="91e7673f49"><path d="M 230 155 L 247 155 L 247 312.75 L 230 312.75 Z M 230 155 "/></clipPath><clipPath id="3e75ef0228"><path d="M 90.300781 135.488281 L 230.929688 135.488281 L 230.929688 179.933594 L 90.300781 179.933594 Z M 90.300781 135.488281 "/></clipPath><clipPath id="483917bd08"><path d="M 160.605469 135.488281 C 121.777344 135.488281 90.300781 145.4375 90.300781 157.710938 C 90.300781 169.984375 121.777344 179.933594 160.605469 179.933594 C 199.4375 179.933594 230.914062 169.984375 230.914062 157.710938 C 230.914062 145.4375 199.4375 135.488281 160.605469 135.488281 Z M 160.605469 135.488281 "/></clipPath><clipPath id="2fb2c818bb"><path d="M 189.730469 109.605469 L 215.613281 109.605469 L 215.613281 135.488281 L 189.730469 135.488281 Z M 189.730469 109.605469 "/></clipPath><clipPath id="908d1821ae"><path d="M 202.671875 109.605469 C 195.527344 109.605469 189.730469 115.398438 189.730469 122.546875 C 189.730469 129.695312 195.527344 135.488281 202.671875 135.488281 C 209.820312 135.488281 215.613281 129.695312 215.613281 122.546875 C 215.613281 115.398438 209.820312 109.605469 202.671875 109.605469 Z M 202.671875 109.605469 "/></clipPath><clipPath id="cf1782d468"><path d="M 156.292969 67.777344 L 198.125 67.777344 L 198.125 109.605469 L 156.292969 109.605469 Z M 156.292969 67.777344 "/></clipPath><clipPath id="106fb4d8f5"><path d="M 177.207031 67.777344 C 165.65625 67.777344 156.292969 77.140625 156.292969 88.691406 C 156.292969 100.242188 165.65625 109.605469 177.207031 109.605469 C 188.757812 109.605469 198.125 100.242188 198.125 88.691406 C 198.125 77.140625 188.757812 67.777344 177.207031 67.777344 Z M 177.207031 67.777344 "/></clipPath><clipPath id="6ea2f54fce"><path d="M 202.785156 41.070312 L 259.042969 41.070312 L 259.042969 97.328125 L 202.785156 97.328125 Z M 202.785156 41.070312 "/></clipPath><clipPath id="3da8fa91cf"><path d="M 230.914062 41.070312 C 215.378906 41.070312 202.785156 53.664062 202.785156 69.199219 C 202.785156 84.734375 215.378906 97.328125 230.914062 97.328125 C 246.449219 97.328125 259.042969 84.734375 259.042969 69.199219 C 259.042969 53.664062 246.449219 41.070312 230.914062 41.070312 Z M 230.914062 41.070312 "/></clipPath><clipPath id="ff0cc172a1"><path d="M 202.671875 41.070312 L 273 41.070312 L 273 114 L 202.671875 114 Z M 202.671875 41.070312 "/></clipPath></defs><g id="a9ec3d0eee"><g clip-rule="nonzero" clip-path="url(#cae00a7064)"><path style=" stroke:none;fill-rule:nonzero;fill:#d19840;fill-opacity:1;" d="M 122.667969 328.4375 C 118.753906 327.066406 115.058594 325.441406 111.582031 323.554688 C 111.449219 254.855469 111.558594 186.140625 111.605469 117.414062 C 115.074219 112.453125 118.769531 107.933594 122.679688 103.972656 C 122.660156 178.804688 122.585938 253.628906 122.667969 328.4375 Z M 122.667969 328.4375 "/></g><path style=" stroke:none;fill-rule:nonzero;fill:#d19840;fill-opacity:1;" d="M 88.210938 255.375 C 87.84375 268.355469 85.691406 280.765625 83.316406 293.167969 C 78.78125 283.371094 75.929688 271.714844 74.90625 258.097656 C 73.882812 244.300781 74.789062 227.855469 77.472656 210.683594 C 81.347656 227.441406 88.792969 235.03125 88.210938 255.375 Z M 88.210938 255.375 "/><path style=" stroke:none;fill-rule:nonzero;fill:#d19840;fill-opacity:1;" d="M 102.871094 256.496094 C 102.304688 275.261719 98.257812 292.882812 95.203125 310.996094 C 92.097656 307.683594 89.320312 304.003906 86.886719 299.9375 C 90.140625 284.671875 93.527344 269.597656 93.929688 253.597656 C 94.492188 231.210938 85.542969 226.800781 81.304688 207.867188 C 80.601562 204.734375 80.136719 201.257812 79.847656 197.558594 C 82.671875 183.8125 86.582031 169.914062 91.507812 156.820312 C 90.949219 173.6875 89.679688 192.988281 92.316406 207.933594 C 95.617188 226.660156 103.5 235.511719 102.871094 256.496094 Z M 102.871094 256.496094 "/><g clip-rule="nonzero" clip-path="url(#c840bcb5fd)"><path style=" stroke:none;fill-rule:nonzero;fill:#d19840;fill-opacity:1;" d="M 107.289062 321.023438 C 104.175781 319.027344 101.265625 316.796875 98.566406 314.320312 C 100.96875 296.125 104.378906 278.382812 104.980469 259.652344 C 105.625 239.597656 99.03125 226.855469 96.585938 208.132812 C 94.230469 190.113281 93.828125 170.292969 94.128906 150.160156 C 97.863281 141.097656 102.101562 132.519531 106.820312 124.757812 C 106.535156 152.804688 106.335938 180.902344 107.210938 208.726562 C 108.40625 246.679688 107.574219 283.464844 107.289062 321.023438 Z M 107.289062 321.023438 "/></g><g clip-rule="nonzero" clip-path="url(#f63108b608)"><path style=" stroke:none;fill-rule:nonzero;fill:#d19840;fill-opacity:1;" d="M 200.183594 329.542969 C 196.628906 330.441406 192.933594 331.203125 189.101562 331.832031 C 189.582031 291.261719 191.890625 248.519531 189.015625 208.734375 C 187.203125 183.644531 176.796875 167.683594 173.605469 143.964844 C 171.347656 127.175781 177.117188 110.980469 182.476562 95.1875 C 185.769531 97.242188 189.011719 99.652344 192.1875 102.378906 C 188.050781 116.386719 184.425781 130.679688 186.253906 145.097656 C 189.1875 168.179688 198.472656 184.472656 200.074219 208.734375 C 202.667969 247.96875 200.671875 289.597656 200.183594 329.542969 Z M 200.183594 329.542969 "/></g><g clip-rule="nonzero" clip-path="url(#286f96f8f8)"><path style=" stroke:none;fill-rule:nonzero;fill:#d19840;fill-opacity:1;" d="M 143.425781 297.90625 C 141.820312 311.105469 139.675781 320.46875 138.695312 332.464844 C 134.660156 331.800781 130.792969 330.933594 127.097656 329.855469 C 127.070312 253.242188 127.09375 176.554688 127.101562 99.808594 C 127.867188 99.140625 128.640625 98.496094 129.421875 97.871094 C 132.300781 95.582031 135.191406 93.683594 138.078125 92.15625 C 137.792969 131.40625 136.894531 171.054688 138.433594 210.078125 C 139.515625 237.53125 146.742188 270.625 143.425781 297.90625 Z M 143.425781 297.90625 "/></g><g clip-rule="nonzero" clip-path="url(#c81357f29c)"><path style=" stroke:none;fill-rule:nonzero;fill:#d19840;fill-opacity:1;" d="M 160.636719 306.523438 C 158.65625 320.117188 155.445312 322.136719 154.179688 334.007812 C 150.421875 333.855469 146.777344 333.5625 143.257812 333.125 C 144.578125 322.027344 147.492188 316.503906 148.992188 303.625 C 152.390625 274.492188 144.226562 239.636719 142.917969 210.410156 C 141.136719 170.664062 142.203125 130.121094 142.503906 90.109375 C 146.199219 88.636719 149.886719 87.75 153.558594 87.398438 C 153.21875 128.390625 152.042969 169.578125 153.992188 210.480469 C 155.382812 239.671875 164.847656 277.613281 160.636719 306.523438 Z M 160.636719 306.523438 "/></g><g clip-rule="nonzero" clip-path="url(#46a035f794)"><path style=" stroke:none;fill-rule:nonzero;fill:#d19840;fill-opacity:1;" d="M 169.175781 333.90625 C 165.570312 334.089844 162.050781 334.160156 158.617188 334.121094 C 159.851562 322.203125 162.796875 315.378906 164.175781 302.160156 C 167.195312 273.230469 159.84375 239.289062 158.382812 210.339844 C 156.261719 168.480469 156.789062 128.628906 157.71875 87.226562 C 160.648438 87.265625 163.558594 87.636719 166.449219 88.3125 C 162.730469 106.773438 157.640625 125.515625 159.351562 144.480469 C 161.378906 166.941406 167.984375 186.160156 169.214844 209.199219 C 171.484375 251.816406 169.535156 291.980469 169.175781 333.90625 Z M 169.175781 333.90625 "/></g><g clip-rule="nonzero" clip-path="url(#b22307a798)"><path style=" stroke:none;fill-rule:nonzero;fill:#d19840;fill-opacity:1;" d="M 184.679688 332.492188 C 181.191406 332.964844 177.605469 333.335938 173.917969 333.609375 C 173.804688 333.617188 173.6875 333.625 173.574219 333.632812 C 173.84375 291.914062 175.5625 250.632812 173.546875 208.773438 C 172.378906 184.640625 163.597656 167.207031 161.003906 144.128906 C 158.90625 125.457031 165.078125 107.121094 169.804688 89.234375 C 172.792969 90.175781 175.75 91.441406 178.675781 92.996094 C 173.027344 109.378906 166.484375 126.160156 168.875 143.742188 C 172.117188 167.601562 182.75 183.457031 184.597656 208.734375 C 187.519531 248.707031 185.144531 291.738281 184.679688 332.492188 Z M 184.679688 332.492188 "/></g><g clip-rule="nonzero" clip-path="url(#0656f00f1f)"><path style=" stroke:none;fill-rule:nonzero;fill:#d19840;fill-opacity:1;" d="M 215.714844 324.328125 C 212.207031 325.851562 208.5 327.179688 204.609375 328.332031 C 205.101562 288.730469 206.949219 247.660156 204.492188 208.734375 C 202.984375 184.835938 194.1875 168.402344 191.378906 145.601562 C 189.738281 132.292969 192.554688 119.003906 196.097656 105.925781 C 199.4375 109.117188 202.699219 112.648438 205.863281 116.46875 C 203.929688 126.203125 202.75 136.09375 203.53125 146.382812 C 205.195312 168.179688 214.207031 185.9375 215.554688 208.734375 C 217.78125 246.464844 216.238281 285.949219 215.714844 324.328125 Z M 215.714844 324.328125 "/></g><g clip-rule="nonzero" clip-path="url(#19b22a3679)"><path style=" stroke:none;fill-rule:nonzero;fill:#d19840;fill-opacity:1;" d="M 220.148438 322.25 C 220.65625 284.160156 221.996094 245.097656 219.644531 207.65625 C 218.261719 185.632812 210.085938 167.695312 208.484375 146.503906 C 207.839844 137.949219 208.5 129.628906 209.800781 121.433594 C 214.742188 127.929688 219.417969 135.101562 223.769531 142.734375 C 223.777344 143.675781 223.796875 144.613281 223.828125 145.558594 C 224.363281 162.777344 226.816406 180.117188 227.597656 197.410156 C 229.390625 237.101562 230.507812 276.109375 230.878906 315.613281 C 227.582031 318.09375 224 320.300781 220.148438 322.25 Z M 220.148438 322.25 "/></g><g clip-rule="nonzero" clip-path="url(#91e7673f49)"><path style=" stroke:none;fill-rule:nonzero;fill:#d19840;fill-opacity:1;" d="M 246.703125 298.023438 C 243.519531 303.398438 239.625 308.097656 235.074219 312.167969 C 234.21875 272.007812 232.03125 232.65625 230.421875 192.15625 C 229.925781 179.710938 230 167.429688 230.40625 155.226562 C 233.402344 161.28125 236.195312 167.527344 238.757812 173.867188 C 238.546875 176.300781 238.441406 179.042969 238.472656 182.234375 C 238.765625 212.199219 245.964844 241.503906 246.507812 271.734375 C 246.667969 280.484375 246.710938 289.253906 246.703125 298.023438 Z M 246.703125 298.023438 "/></g><path style=" stroke:none;fill-rule:nonzero;fill:#d19840;fill-opacity:1;" d="M 256.824219 258.8125 C 256.503906 270.390625 254.546875 280.421875 251.105469 289.050781 C 251.082031 283.273438 251.03125 277.5 250.929688 271.734375 C 250.410156 242.191406 243.382812 213.535156 242.734375 184.304688 C 252.140625 210.527344 257.453125 237.511719 256.824219 258.8125 Z M 256.824219 258.8125 "/><g clip-rule="nonzero" clip-path="url(#3e75ef0228)"><g clip-rule="nonzero" clip-path="url(#483917bd08)"><path style=" stroke:none;fill-rule:nonzero;fill:#f58e26;fill-opacity:1;" d="M 90.300781 135.488281 L 230.929688 135.488281 L 230.929688 179.933594 L 90.300781 179.933594 Z M 90.300781 135.488281 "/></g></g><g clip-rule="nonzero" clip-path="url(#2fb2c818bb)"><g clip-rule="nonzero" clip-path="url(#908d1821ae)"><path style=" stroke:none;fill-rule:nonzero;fill:#48acbb;fill-opacity:1;" d="M 189.730469 109.605469 L 215.613281 109.605469 L 215.613281 135.488281 L 189.730469 135.488281 Z M 189.730469 109.605469 "/></g></g><g clip-rule="nonzero" clip-path="url(#cf1782d468)"><g clip-rule="nonzero" clip-path="url(#106fb4d8f5)"><path style=" stroke:none;fill-rule:nonzero;fill:#48acbb;fill-opacity:1;" d="M 156.292969 67.777344 L 198.125 67.777344 L 198.125 109.605469 L 156.292969 109.605469 Z M 156.292969 67.777344 "/></g></g><g clip-rule="nonzero" clip-path="url(#6ea2f54fce)"><g clip-rule="nonzero" clip-path="url(#3da8fa91cf)"><path style=" stroke:none;fill-rule:nonzero;fill:#48acbb;fill-opacity:1;" d="M 202.785156 41.070312 L 259.042969 41.070312 L 259.042969 97.328125 L 202.785156 97.328125 Z M 202.785156 41.070312 "/></g></g><g clip-rule="nonzero" clip-path="url(#ff0cc172a1)"><path style=" stroke:none;fill-rule:evenodd;fill:#f58e26;fill-opacity:1;" d="M 232.367188 41.070312 C 224.496094 41.070312 216.945312 44.199219 211.378906 49.765625 C 205.8125 55.332031 202.683594 62.882812 202.683594 70.753906 C 202.683594 78.628906 205.8125 86.175781 211.378906 91.746094 C 216.945312 97.3125 224.496094 100.4375 232.367188 100.4375 C 237.308594 100.414062 242.167969 99.152344 246.5 96.773438 L 261.074219 111.589844 C 263.644531 114.207031 267.824219 114.238281 270.441406 111.667969 C 273.054688 109.09375 273.089844 104.914062 270.515625 102.300781 L 256.445312 87.996094 C 260.066406 82.972656 262.027344 76.945312 262.050781 70.753906 C 262.050781 62.882812 258.921875 55.332031 253.355469 49.765625 C 247.789062 44.199219 240.238281 41.070312 232.367188 41.070312 Z M 232.707031 49.703125 C 237.964844 49.703125 243.011719 51.890625 246.730469 55.785156 C 250.449219 59.679688 252.539062 64.960938 252.539062 70.464844 C 252.527344 76.433594 250.0625 82.109375 245.773438 86.039062 C 245.675781 86.125 245.582031 86.210938 245.488281 86.300781 C 245.4375 86.351562 245.390625 86.40625 245.339844 86.457031 C 241.785156 89.539062 237.320312 91.226562 232.707031 91.230469 C 227.445312 91.230469 222.402344 89.042969 218.679688 85.148438 C 214.960938 81.253906 212.871094 75.972656 212.871094 70.464844 C 212.871094 64.960938 214.960938 59.679688 218.679688 55.785156 C 222.402344 51.890625 227.445312 49.703125 232.707031 49.703125 Z M 232.707031 49.703125 "/></g></g></svg>